/* XPM */
static const char *add_xpm[] = {
/* columns rows colors chars-per-pixel */
"50 50 4 1",
"o c #313131",
"X c #323232",
"  c None",
". c #333333",
/* pixels */
"   ....X..X....X..X..X..X.X..X..X..X....X..X..X.  ",
"  o............X..X..X..X.X..X..X..X....X..X..X.o ",
" .....XX..X.......................................",
"..........................X..X..X..X....X..X..X..X",
"o....XXXXXXXXXX.XX.XX.XX.XXXXXXXXXXXXXXXXXXXXXXXXX",
"....                                           ..X",
"....                                           ..X",
"X...                                           XXX",
"....                                           ..X",
"X...                                           XXX",
"....                   XXXXX                   ..X",
"....                  XXXXXXX                  XXX",
"....                  XXXXXXX                  ..X",
"....                  XXXXXXX                  XXX",
"....                  XXXXXXX                  ..X",
"....                  XXXXXXX                  XXX",
"....                  XXXXXXX                  ..X",
"X...                  XXXXXXX                  ..X",
"....                  XXXXXXX                  ..X",
"X...                  XXXXXXX                  ..X",
"....                  XXXXXXX                  XXX",
"X...                  XXXXXXX                  ..X",
"....       XXXXXXXXXXXXXXXXXXXXXXXXXXXXX       XXX",
"X...      XXXXXXXXXXXXXXXXXXXXXXXXXXXXXXX      ..X",
"X...      XXXXXXXXXXXXXXXXXXXXXXXXXXXXXXX      XXX",
"....      XXXXXXXXXXXXXXXXXXXXXXXXXXXXXXX      ...",
".XXX      XXXXXXXXXXXXXXXXXXXXXXXXXXXXXXX      XX.",
"....      XXXXXXXXXXXXXXXXXXXXXXXXXXXXXXX      ...",
"XXXX       XXXXXXXXXXXXXXXXXXXXXXXXXXXXX       XXX",
"....                  XXXXXXX                  ...",
"XXXX                  XXXXXXX                  XXX",
"....                  XXXXXXX                  ...",
"XXXX                  XXXXXXX                  XXX",
"....                  XXXXXXX                  ...",
"XXXX                  XXXXXXX                  XXX",
"....                  XXXXXXX                  ...",
"XXXX                  XXXXXXX                  XXX",
"....                  XXXXXXX                  ...",
"XXXX                  XXXXXXX                  XXX",
"....                  XXXXXXX                  ...",
"XXXX                   XXXXX                   XXX",
"....                                           ...",
"X...                                           ..X",
"....                                           ...",
"X...                                           ..X",
"XXXX                                           XXX",
"o...X                                         X..X",
"oXXXXXXXXXXXXXXXXXXXXXXXXXXXXXXXXXXXXXXXXXXXXXXXXX",
" .................................................",
"  .XXXXXXXXXXXXXXXXXXXXXXXXXXXXXXXXXXXXXXXXXXXXX. "
};
