/* XPM */
static const char *cam1_xpm[] = {
/* columns rows colors chars-per-pixel */
"64 64 23 1",
"@ c #F7F7F7",
": c #FFFFFF",
"= c #E4E5E4",
"2 c #E4E5E5",
"$ c #F8F8F8",
"O c #6F6E6E",
"* c #E7E9E8",
"& c #EAEAEA",
", c #E8EAE9",
". c #3F3F3F",
"# c #EEEFEE",
"  c None",
"< c #E7E8E7",
"+ c #7D7D7D",
"4 c #E6E9E8",
"- c #EBEDEC",
"; c #E6E6E6",
"X c #3F3E3E",
"> c #E4E6E5",
"o c #403F3F",
"1 c #E5E7E5",
"3 c #E5E7E6",
"% c #E3E7E5",
/* pixels */
"                                                                ",
"                                                                ",
"                                                                ",
"                                                                ",
"                                                                ",
"                                                                ",
"                                                                ",
"                                                 .Xoo.          ",
"                                              Xoooooo           ",
"                                           .ooooooooo           ",
"                                           XooooooooX           ",
"                                           XoooXXoooX           ",
"                                            .    ooo.           ",
"                                                .ooo            ",
"                                                Xooo            ",
"                                                oooX            ",
"                                                oooX            ",
"                                               .ooo             ",
"                                               Xooo             ",
"                                               Xooo             ",
"                                               oooX             ",
"                                               ooo.             ",
"                                              .ooo              ",
"                                              Xooo              ",
"                                              oooX              ",
"                                              oooX              ",
"                                         .XXXXoooXXXX.          ",
"                                        ooooooooooooooo         ",
"                                       XooooooooooooooX         ",
"                 ooooooooooooooo        XooooooooooooX          ",
"                ooooooooooooooooo                               ",
"                ooooooooooooooooo                               ",
"               oooooooooooooooooo                               ",
"               ooooooooooooooooooo                              ",
"        ooooooooooooooooooooooooooooooooo                       ",
"       ooooooooooooooooooooooooooooooooooo                      ",
"      ooooooooooooooooooooooooooooooooooooo                     ",
"      ooooooooooooooooooooooooooooooooooooo                     ",
"      ooooooooooooooooO+++Ooooooooooooooooo                     ",
"      ooooooooooooooO++@#$++Ooooooooooooooo                     ",
"      oooooooooooooO+%&   &*+Oooooooooooooo                     ",
"      ooooooooooooO+=&     &=+Ooooooooooooo                     ",
"      oooooooooooo+-&       &@Ooooooooooooo                     ",
"      oooooooooooO+&         ;+oooooooooooo                     ",
"      oooooooooooO:&         &+Oooooooooooo                     ",
"      oooooooooooO:&         &:Oooooooooooo                     ",
"      oooooooooooO+&         &+Oooooooooooo                     ",
"      oooooooooooo+>&       &,+oooooooooooo                     ",
"      ooooooooooooO+<       ;+Ooooooooooooo                     ",
"      oooooooooooooO+1&   &2+Oooooooooooooo                     ",
"      ooooooooooooooO+@324$+Ooooooooooooooo                     ",
"      oooooooooooooooOO+++OOooooooooooooooo                     ",
"      ooooooooooooooooooOoooooooooooooooooo                     ",
"      ooooooooooooooooooooooooooooooooooooo                     ",
"      ooooooooooooooooooooooooooooooooooooo                     ",
"      ooooooooooooooooooooooooooooooooooooo                     ",
"       ooooooooooooooooooooooooooooooooooo                      ",
"       ooooooooooooooooooooooooooooooooooo                      ",
"         ooooooooooooooooooooooooooooooo                        ",
"                                                                ",
"                                                                ",
"                                                                ",
"                                                                ",
"                                                                "
};
