/* XPM */
static const char *cam2_xpm[] = {
/* columns rows colors chars-per-pixel */
"64 64 23 1",
"@ c #F7F7F7",
": c #FFFFFF",
"= c #E4E5E4",
"2 c #E4E5E5",
"$ c #F8F8F8",
"O c #6F6E6E",
"* c #E7E9E8",
"& c #EAEAEA",
", c #E8EAE9",
". c #3F3F3F",
"# c #EEEFEE",
"  c None",
"< c #E7E8E7",
"+ c #7D7D7D",
"4 c #E6E9E8",
"- c #EBEDEC",
"; c #E6E6E6",
"o c #3F3E3E",
"> c #E4E6E5",
"X c #403F3F",
"1 c #E5E7E5",
"3 c #E5E7E6",
"% c #E3E7E5",
/* pixels */
"                                                                ",
"                                                                ",
"                                                                ",
"                                                                ",
"                                                                ",
"                                                                ",
"                                                   ..           ",
"                                               .XXXXXXo.        ",
"                                             .XXXXXXXXXX.       ",
"                                            oXXXXXXXXXXXX       ",
"                                           .XXXXo...oXXXXo      ",
"                                           XXXX.     oXXXX      ",
"                                          .XXX.       XXXX      ",
"                                          oXXo        XXXX      ",
"                                           .         .XXXo      ",
"                                                     XXXX       ",
"                                                    XXXXo       ",
"                                                  .XXXXo        ",
"                                                 oXXXXo         ",
"                                                oXXXXo          ",
"                                              .XXXXX.           ",
"                                             oXXXXo             ",
"                                            oXXXXo              ",
"                                          oXXXXX.               ",
"                                         oXXXXo                 ",
"                                       .XXXXXo                  ",
"                                      .XXXXXoooooooooXo         ",
"                                      oXXXXXXXXXXXXXXXX         ",
"                                      oXXXXXXXXXXXXXXXo         ",
"                 XXXXXXXXXXXXXXX      XXXXXXXXXXXXXXXX.         ",
"                XXXXXXXXXXXXXXXXX                               ",
"                XXXXXXXXXXXXXXXXX                               ",
"               XXXXXXXXXXXXXXXXXX                               ",
"               XXXXXXXXXXXXXXXXXXX                              ",
"        XXXXXXXXXXXXXXXXXXXXXXXXXXXXXXXXX                       ",
"       XXXXXXXXXXXXXXXXXXXXXXXXXXXXXXXXXXX                      ",
"      XXXXXXXXXXXXXXXXXXXXXXXXXXXXXXXXXXXXX                     ",
"      XXXXXXXXXXXXXXXXXXXXXXXXXXXXXXXXXXXXX                     ",
"      XXXXXXXXXXXXXXXXO+++OXXXXXXXXXXXXXXXX                     ",
"      XXXXXXXXXXXXXXO++@#$++OXXXXXXXXXXXXXX                     ",
"      XXXXXXXXXXXXXO+%&   &*+OXXXXXXXXXXXXX                     ",
"      XXXXXXXXXXXXO+=&     &=+OXXXXXXXXXXXX                     ",
"      XXXXXXXXXXXX+-&       &@OXXXXXXXXXXXX                     ",
"      XXXXXXXXXXXO+&         ;+XXXXXXXXXXXX                     ",
"      XXXXXXXXXXXO:&         &+OXXXXXXXXXXX                     ",
"      XXXXXXXXXXXO:&         &:OXXXXXXXXXXX                     ",
"      XXXXXXXXXXXO+&         &+OXXXXXXXXXXX                     ",
"      XXXXXXXXXXXX+>&       &,+XXXXXXXXXXXX                     ",
"      XXXXXXXXXXXXO+<       ;+OXXXXXXXXXXXX                     ",
"      XXXXXXXXXXXXXO+1&   &2+OXXXXXXXXXXXXX                     ",
"      XXXXXXXXXXXXXXO+@324$+OXXXXXXXXXXXXXX                     ",
"      XXXXXXXXXXXXXXXOO+++OOXXXXXXXXXXXXXXX                     ",
"      XXXXXXXXXXXXXXXXXXOXXXXXXXXXXXXXXXXXX                     ",
"      XXXXXXXXXXXXXXXXXXXXXXXXXXXXXXXXXXXXX                     ",
"      XXXXXXXXXXXXXXXXXXXXXXXXXXXXXXXXXXXXX                     ",
"      XXXXXXXXXXXXXXXXXXXXXXXXXXXXXXXXXXXXX                     ",
"       XXXXXXXXXXXXXXXXXXXXXXXXXXXXXXXXXXX                      ",
"       XXXXXXXXXXXXXXXXXXXXXXXXXXXXXXXXXXX                      ",
"         XXXXXXXXXXXXXXXXXXXXXXXXXXXXXXX                        ",
"                                                                ",
"                                                                ",
"                                                                ",
"                                                                ",
"                                                                "
};
