/* XPM */
static const char *camDisplay_xpm[] = {
/* columns rows colors chars-per-pixel */
"64 64 22 1",
"@ c #F7F7F7",
"+ c #504F4F",
"O c #FFFFFF",
"= c #E4E5E4",
"1 c #E4E5E5",
"$ c #F8F8F8",
"X c #6F6E6E",
"* c #E7E9E8",
"& c #EAEAEA",
"> c #E8EAE9",
"# c #EEEFEE",
"  c None",
", c #E7E8E7",
"o c #7D7D7D",
"3 c #E6E9E8",
"- c #EBEDEC",
"; c #E6E6E6",
": c #E4E6E5",
". c #403F3F",
"< c #E5E7E5",
"2 c #E5E7E6",
"% c #E3E7E5",
/* pixels */
"                                                                ",
"                                                                ",
"                                                                ",
"                                                                ",
"                                                                ",
"                  ........................................      ",
"                 ..........................................     ",
"                 ..........................................     ",
"                 ....XXXXXXXXXXXXXXXXXXXXXXXXXXXXXXXXXX....     ",
"                 ...ooOOOOOOOOOOOOOOOOOOOOOOOOOOOOOOOOoo...     ",
"                 ...oOOOOOOOOOOOOOOOOOOOOOOOOOOOOOOOOOOo...     ",
"                 ...oOOOOOOOOOOOOOOOOOOOOOOOOOOOOOOOOOOo...     ",
"                 ...oOOOOOOOOOOOOOOOOOOOOOOOOOOOOOOOOOOo...     ",
"                 ...oOOOOOOOOOOOOOOOOOOOOOOOOOOOOOOOOOOo...     ",
"                 ...oOOOOOOOOOOOOOOOOOOOOOOOOOOOOOOOOOOo...     ",
"                 ...oOOOOOOOOOOOOOOOOOOOOOOOOOOOOOOOOOOo...     ",
"                 ...oOOOOOOOOOOOOOOOOOOOOOOOOOOOOOOOOOOo...     ",
"                 ...oOOOOOOOOOOOOOOOOOOOOOOOOOOOOOOOOOOo...     ",
"                 ...oOOOOOOOOOOOOOOOOOOOOOOOOOOOOOOOOOOo...     ",
"                 ...oOOOOOOOOOOOOOOOOOOOOOOOOOOOOOOOOOOo...     ",
"                 ...oOOOOOOOOOOOOOOOOOOOOOOOOOOOOOOOOOOo...     ",
"                 ...oOOOOOOOOOOOOOOOOOOOOOOOOOOOOOOOOOOo...     ",
"                 ...oOOOOOOOOOOOOOOOOOOOOOOOOOOOOOOOOOOo...     ",
"                 ...oOOOOOOOOOOOOOOOOOOOOOOOOOOOOOOOOOOo...     ",
"                 ...oOOOOOOOOOOOOOOOOOOOOOOOOOOOOOOOOOOo...     ",
"                 ...oOOOOOOOOOOOOOOOOOOOOOOOOOOOOOOOOOOo...     ",
"                 ...oOOOOOOOOOOOOOOOOOOOOOOOOOOOOOOOOOOo...     ",
"                 ...oOOOOOOOOOOOOOOOOOOOOOOOOOOOOOOOOOOo...     ",
"                 ...oOOOOOOOOOOOOOOOOOOOOOOOOOOOOOOOOOOo...     ",
"                 ...............OOOOOOOOOOOOOOOOOOOOOOOo...     ",
"                .................OOOOOOOOOOOOOOOOOOOOOOo...     ",
"                .................OOOOOOOOOOOOOOOOOOOOOOo...     ",
"               ..................OOOOOOOOOOOOOOOOOOOOOoo...     ",
"               ...................+++++++++++++++++++++....     ",
"        ...................................................     ",
"       ...................................................      ",
"      .....................................                     ",
"      .....................................                     ",
"      ................XoooX................                     ",
"      ..............Xoo@#$ooX.................                  ",
"      .............Xo%&   &*oX................                  ",
"      ............Xo=&     &=oX...............                  ",
"      ............o-&       &@X............                     ",
"      ...........Xo&         ;o............                     ",
"      ...........XO&         &oX...........                     ",
"      ...........XO&         &OX...........                     ",
"      ...........Xo&         &oX...........                     ",
"      ............o:&       &>o............                     ",
"      ............Xo,       ;oX............                     ",
"      .............Xo<&   &1oX.............                     ",
"      ..............Xo@213$oX..............                     ",
"      ...............XXoooXX...............                     ",
"      ..................X..................                     ",
"      .....................................                     ",
"      .....................................                     ",
"      .....................................                     ",
"       ...................................                      ",
"       ...................................                      ",
"         ...............................                        ",
"                                                                ",
"                                                                ",
"                                                                ",
"                                                                ",
"                                                                "
};
