/* XPM */
static const char *camSave_xpm[] = {
/* columns rows colors chars-per-pixel */
"64 64 26 1",
"% c #F7F7F7",
"< c #FFFFFF",
": c #E4E5E4",
"5 c #E4E5E5",
"* c #F8F8F8",
"@ c #6F6E6E",
"; c #E7E9E8",
"$ c #34393E",
"- c #EAEAEA",
"2 c #E8EAE9",
"& c #EEEFEE",
"  c None",
"O c #39453F",
"3 c #E7E8E7",
"X c #323232",
"# c #7D7D7D",
"7 c #E6E9E8",
"> c #EBEDEC",
", c #E6E6E6",
"o c #33393E",
"1 c #E4E6E5",
". c #333333",
"+ c #403F3F",
"4 c #E5E7E5",
"6 c #E5E7E6",
"= c #E3E7E5",
/* pixels */
"                                                                ",
"                                                                ",
"                                                                ",
"                                                                ",
"                                                                ",
"                                                                ",
"                                                                ",
"                           .X..ooooooooooooooXXX..X             ",
"                          X...                   ....           ",
"                         X....               oo   ....          ",
"                         X....               .X   .....         ",
"                         .....              X..   .....X        ",
"                         .....              X..   ......        ",
"                         .....              X..   ......X       ",
"                         .....              X..   .......       ",
"                         .....              X..   .......       ",
"                         .....              X.X   .......       ",
"                         .....               .X   .......       ",
"                         .....                    .......       ",
"                         .....               .  OX.......       ",
"                         ................................       ",
"                         ................................       ",
"                         ...                          ...       ",
"                         X..                          ...       ",
"                         X..                          ...       ",
"                         X..                          ...       ",
"                         X..                          ...       ",
"                         X..                          ...       ",
"                         X..                          ...       ",
"                 +++++++++++++++                      ...       ",
"                +++++++++++++++++                     ...       ",
"                +++++++++++++++++                     ...       ",
"               ++++++++++++++++++                     ...       ",
"               +++++++++++++++++++                    ...       ",
"        +++++++++++++++++++++++++++++++++             ...       ",
"       +++++++++++++++++++++++++++++++++++            ..X       ",
"      +++++++++++++++++++++++++++++++++++++           ..X       ",
"      +++++++++++++++++++++++++++++++++++++           .X        ",
"      ++++++++++++++++@###@++++++++++++++++$$$$$$$$$$X.         ",
"      ++++++++++++++@##%&*##@++++++++++++++                     ",
"      +++++++++++++@#=-   -;#@+++++++++++++                     ",
"      ++++++++++++@#:-     -:#@++++++++++++                     ",
"      ++++++++++++#>-       -%@++++++++++++                     ",
"      +++++++++++@#-         ,#++++++++++++                     ",
"      +++++++++++@<-         -#@+++++++++++                     ",
"      +++++++++++@<-         -<@+++++++++++                     ",
"      +++++++++++@#-         -#@+++++++++++                     ",
"      ++++++++++++#1-       -2#++++++++++++                     ",
"      ++++++++++++@#3       ,#@++++++++++++                     ",
"      +++++++++++++@#4-   -5#@+++++++++++++                     ",
"      ++++++++++++++@#%657*#@++++++++++++++                     ",
"      +++++++++++++++@@###@@+++++++++++++++                     ",
"      ++++++++++++++++++@++++++++++++++++++                     ",
"      +++++++++++++++++++++++++++++++++++++                     ",
"      +++++++++++++++++++++++++++++++++++++                     ",
"      +++++++++++++++++++++++++++++++++++++                     ",
"       +++++++++++++++++++++++++++++++++++                      ",
"       +++++++++++++++++++++++++++++++++++                      ",
"         +++++++++++++++++++++++++++++++                        ",
"                                                                ",
"                                                                ",
"                                                                ",
"                                                                ",
"                                                                "
};
