/* XPM */
static const char *camSettings_xpm[] = {
/* columns rows colors chars-per-pixel */
"64 64 44 1",
"9 c #F7F7F7",
"2 c #737474",
", c #6C7672",
"o c #494E4B",
": c #585A59",
"$ c #FFFFFF",
"y c #E4E5E4",
"f c #E4E5E5",
"q c #F8F8F8",
"5 c #797979",
"7 c #6F6E6E",
"& c #4A4F4C",
"= c #CECFD1",
"6 c #545756",
"; c #5C6862",
"4 c #595B5A",
"@ c #6D6E6E",
"e c #EAEAEA",
"3 c #69746F",
"# c #898989",
"a c #E8EAE9",
"X c #464947",
"< c #555857",
"> c #767D7C",
"t c #DADCDB",
"0 c #EEEFEE",
"  c None",
"% c #565958",
"r c #A1A1A1",
"O c #4A4E4B",
"s c #E7E8E7",
"1 c #BFBFC1",
"8 c #7D7D7D",
"h c #E6E9E8",
"u c #EBEDEC",
"+ c #535755",
"i c #E6E6E6",
"* c #717272",
"p c #E4E6E5",
". c #403F3F",
"d c #E5E7E5",
"g c #E5E7E6",
"- c #697570",
"w c #E3E7E5",
/* pixels */
"                                                                ",
"                                                                ",
"                                                                ",
"                                       ...                      ",
"                                      .....                     ",
"                                      .....                     ",
"                                     .......                    ",
"                                    .........                   ",
"                          ..     ...............     ..         ",
"                         ..... ................... .....        ",
"                        .................................       ",
"                        .................................       ",
"                         ...............................        ",
"                         ...............................        ",
"                          .............XXX.............         ",
"                         ..........oO+@#$#@+Oo..........        ",
"                         .........o%$$$$$$$$$%o.........        ",
"                        .........&*$$$$$$$$$$$*&.........       ",
"                        ........o*$$$=-;;;-=$$$*o........       ",
"                       ........o:$$$>;.....;>$$$:o........      ",
"                       ........&$$$,;.......;,$$$&........      ",
"                      .........<$$1;.........;1$$<.........     ",
"                    ..........X2$$3....   ....3$$2X..........   ",
"                   ...........o$$$;...     ...;$$$o..........   ",
"                   ...........o$$$;...     ...;$$$o..........   ",
"                   ...........o$$$;...     ...;$$$o..........   ",
"                    ..........X2$$3....   ....3$$2X..........   ",
"                      .........%$$1;.........;1$$<.........     ",
"                       ........&$$$,;.......;,$$$&........      ",
"                 ...............4$$$>;.....;>$$$:o........      ",
"                .................5$$$=-;;;-=$$$*o........       ",
"                .................&5$$$$$$$$$$$*&.........       ",
"               ...................o%$$$$$$$$$%o.........        ",
"               ....................o&6@#$#@+Oo..........        ",
"        .................................X.............         ",
"       .................................................        ",
"      ..................................................        ",
"      ...................................................       ",
"      ................78887..............................       ",
"      ..............78890q887..................... .....        ",
"      .............78we   rt87..................     ..         ",
"      ............78ye     ey87..............                   ",
"      ............8ue       e97.............                    ",
"      ...........78e         i8............                     ",
"      ...........7$e         e87...........                     ",
"      ...........7$e         e$7...........                     ",
"      ...........78e         e87...........                     ",
"      ............8pe       ea8............                     ",
"      ............78s       i87............                     ",
"      .............78de   ef87.............                     ",
"      ..............789gfhq87..............                     ",
"      ...............7788877...............                     ",
"      ..................7..................                     ",
"      .....................................                     ",
"      .....................................                     ",
"      .....................................                     ",
"       ...................................                      ",
"       ...................................                      ",
"         ...............................                        ",
"                                                                ",
"                                                                ",
"                                                                ",
"                                                                ",
"                                                                "
};
