/* XPM */
static const char *delete_xpm[] = {
/* columns rows colors chars-per-pixel */
"50 50 4 1",
"o c #313131",
"X c #323232",
"  c None",
". c #333333",
/* pixels */
"   ....X..X....X..X..X..X.X..X..X..X....X..X..X.  ",
"  o............X..X..X..X.X..X..X..X....X..X..X.o ",
" .....XX..X.......................................",
"..........................X..X..X..X....X..X..X..X",
"o....XXXXXXXXXX.XX.XX.XX.XXXXXXXXXXXXXXXXXXXXXXXXX",
"....                                           ..X",
"....                                           ..X",
"X...                                           XXX",
"....                                           ..X",
"X...                                           XXX",
"....                                           ..X",
"....                                           XXX",
"....            oo               oo            ..X",
"....           XXXX             XXXX           XXX",
"....          XXXXXo           XXXXXX          ..X",
"....         XXXXXXXX         XXXXXXXX         XXX",
"....        oXXXXXXXXX       XXXXXXXXXo        ..X",
"X...        oXXXXXXXXXo     oXXXXXXXXXo        ..X",
"....         oXXXXXXXXXX   XXXXXXXXXXX         ..X",
"X...          XXXXXXXXXXX XXXXXXXXXXX          ..X",
"....           oXXXXXXXXXXXXXXXXXXXX           XXX",
"X...            oXXXXXXXXXXXXXXXXXX            ..X",
"....             XXXXXXXXXXXXXXXXX             XXX",
"X...              oXXXXXXXXXXXXXX              ..X",
"X...               oXXXXXXXXXXXX               XXX",
"....                XXXXXXXXXXX                ...",
".XXX               XXXXXXXXXXXXX               XX.",
"....              XXXXXXXXXXXXXXX              ...",
"XXXX             oXXXXXXXXXXXXXXXX             XXX",
"....            XXXXXXXXXXXXXXXXXXX            ...",
"XXXX           XXXXXXXXXXXXXXXXXXXXX           XXX",
"....          oXXXXXXXXXX oXXXXXXXXXX          ...",
"XXXX         XXXXXXXXXXX   oXXXXXXXXXX         XXX",
"....        oXXXXXXXXXo     XXXXXXXXXXo        ...",
"XXXX        oXXXXXXXXX       oXXXXXXXXo        XXX",
"....        oXXXXXXXX         oXXXXXXX         ...",
"XXXX          XXXXXo           XXXXXX          XXX",
"....           XXXX             oXXX           ...",
"XXXX           ooo               oo            XXX",
"....                                           ...",
"XXXX                                           XXX",
"....                                           ...",
"X...                                           ..X",
"....                                           ...",
"X...                                           ..X",
"XXXX                                           XXX",
"o...X                                         X..X",
"oXXXXXXXXXXXXXXXXXXXXXXXXXXXXXXXXXXXXXXXXXXXXXXXXX",
" .................................................",
"  .XXXXXXXXXXXXXXXXXXXXXXXXXXXXXXXXXXXXXXXXXXXXX. "
};
