/* XPM */
static const char *imgSave_xpm[] = {
/* columns rows colors chars-per-pixel */
"64 64 18 1",
": c #5B6763",
"+ c #FFFFFF",
"> c #404745",
"; c #34393E",
"= c #6E7B75",
"$ c #EDF4F0",
"* c #353736",
"  c None",
"% c #BFBFBF",
"O c #39453F",
"- c #9FA1A4",
"# c #9A9A9A",
"X c #323232",
"o c #33393E",
". c #333333",
"@ c #9C9C9C",
"& c #73807A",
", c #505B57",
/* pixels */
"                                                                ",
"                                                                ",
"                                                                ",
"                                                                ",
"                                                                ",
"                                                                ",
"                                                                ",
"                           .X..ooooooooooooooXXX..X             ",
"                          X...                   ....           ",
"                         X....               oo   ....          ",
"                         X....               .X   .....         ",
"                         .....              X..   .....X        ",
"                         .....              X..   ......        ",
"                         .....              X..   ......X       ",
"                         .....              X..   .......       ",
"                         .....              X..   .......       ",
"                         .....              X.X   .......       ",
"                         .....               .X   .......       ",
"                         .....                    .......       ",
"                         .....               .  OX.......       ",
"                         ................................       ",
"                         ................................       ",
"                         ...                          ...       ",
"                         X..                          ...       ",
"         ++++++++++++++++@##$++++++++++               ...       ",
"        %&&&&&&&&&&&&&&&&&&&&&&&&&&&&&&%              ...       ",
"       +&..............................&+             ...       ",
"       +&..............................&+             ...       ",
"       +&..............................&+             ...       ",
"       +&..............................&+             ...       ",
"       +&......&%&.....................&+             ...       ",
"       +&......%+%*....................&+             ...       ",
"       +&......&%&.....................&+             ...       ",
"       +&..............................&+             ...       ",
"       +&..............................&+             ...       ",
"       +&..............................&+             ..X       ",
"       +&..............................&+             ..X       ",
"       +&....................=&*.......&+             .X        ",
"       +&...................&%+&.......&-;;;;;;;;;;;;X.         ",
"       +&........&:........&%++%=......&+                       ",
"       +&.......&%%&:.....:%++++&......&+                       ",
"       +&......&%+++%&...>&+++++%=.....&+                       ",
"       +&.....,%+++++%&&=&+++++++&.....&+                       ",
"       +&.....&++++++++++++++++++%,....&+                       ",
"       +&....,%+++++++++++++++++++&....&+                       ",
"       +&....&++++++++++++++++++++&....&+                       ",
"       +&...*%++++++++++++++++++++%,...&+                       ",
"       +&...=++++++++++++++++++++++&...&+                       ",
"       +&...&%%%%%%%%%%%%%%%%%%%%%%&...&+                       ",
"       +&..............................&+                       ",
"       +&..............................&+                       ",
"       +&..............................&+                       ",
"       +%%%%%%%%%%%%%%%%%%%%%%%%%%%%%%%%+                       ",
"       ++++++++++++++++++++++++++++++++++                       ",
"       ++++++++++++++++++++++++++++++++++                       ",
"       ++++++++++++++++++++++++++++++++++                       ",
"        ++++++++++++++++++++++++++++++++                        ",
"         ++++++++++++++++++++++++++++++                         ",
"                                                                ",
"                                                                ",
"                                                                ",
"                                                                ",
"                                                                ",
"                                                                "
};
