/* XPM */
static const char *imgSave64_xpm[] = {
/* columns rows colors chars-per-pixel */
"64 64 48 1",
". c #3E92E8",
"q c #F0F6FA",
"< c #B5D3E6",
"@ c #FFFFFF",
"2 c #69A7CC",
"4 c #AECFE3",
", c #82B5D4",
"j c #A0C7DF",
"1 c #8ABAD7",
"& c #5EA0C8",
"d c #7CB2D2",
"y c #86B7D6",
"; c #A4C9E0",
"f c #B3D2E5",
"s c #9DC5DD",
"0 c #FDFEFE",
"6 c #62A2C9",
"w c #C2DBEA",
"7 c #ACCEE3",
"% c #71ABCE",
"z c #87BBEF",
"O c #A0C9F4",
"l c #4093E7",
"k c #9EC6DE",
"X c #4093E8",
"r c #88B9D6",
"a c #E8F2F7",
"* c #97C2DB",
"o c #83B8EE",
"i c #66A4CB",
"e c #6BA8CD",
"> c #C6DDEC",
"3 c #75ADD0",
"h c #7AB1D2",
"= c #BFD9E9",
"  c None",
"- c #A2C8DF",
": c #B1D1E4",
"5 c #FBFDFE",
"8 c #60A1C9",
"9 c #C0DAEA",
"u c #AACDE2",
"t c #6FAACE",
"+ c #85BAEE",
"$ c #7EB3D3",
"g c #C8DFEC",
"# c #8DBCD8",
"p c #D7E8F1",
/* pixels */
"                                                                ",
"                                                                ",
"    ........................................................    ",
"   ..........................................................   ",
"  ............................................................  ",
"  ............................................................  ",
"  ............................................................  ",
"  ............................................................  ",
"  ............................................................  ",
"  ............................................................  ",
"  ............................................................  ",
"  ............................................................  ",
"  ............................................................  ",
"  ............................................................  ",
"  ............................................................  ",
"  .............XoOOOOOOOOOOOOOOOOOOOOOOOOOOOOOOoX.............  ",
"  .............+@@@@@@@@@@@@@@@@@@@@@@@@@@@@@@@@+.............  ",
"  .............O@#$$$$$$$$$$$$$$$$$$$$$$$$$$$$#@O.............  ",
"  .............O@%&&&&&&&&&&&&&&&&&&&&&&&&&&&&%@O.............  ",
"  .............O@%&&&&&&&&&&&&&&&&&&&&&&&&&&&&%@O.............  ",
"  .............O@%&&&&&*=-&&&&&&&&&&&&&&&&&&&&%@O.............  ",
"  .............O@%&&&&#@@@;&&&&&&&&&&&&&&&&&&&%@O.............  ",
"  .............O@%&&&&:@@@>&&&&&&&&&&&&&&&&&&&%@O.............  ",
"  .............O@%&&&&,@@@*&&&&&&&&&&&&&&&&&&&%@O.............  ",
"  .............O@%&&&&&,<1&&&&&&&&&&&&&&&&&&&&%@O.............  ",
"  .............O@%&&&&&&&&&&&&&&&&&&&&&&&&&&&&%@O.............  ",
"  .............O@%&&&&&&&&&&&&&&&&&&&&&&&&&&&&%@O.............  ",
"  .............O@%&&&&&&&&&&&&&&&&&&&23&&&&&&&%@O.............  ",
"  .............O@%&&&&&&&&&&&&&&&&&&45@>&&&&&&%@O.............  ",
"  .............O@%&&&&&&&6&&&&&&&&&-@@@@7&&&&&%@O.............  ",
"  .............O@%&&&&&890qwe&&&&&r0@@@@5t&&&&%@O.............  ",
"  .............O@%&&&&&w@@@@qy&&&eq@@@@@@9&&&&%@O.............  ",
"  .............O@%&&&&#@@@@@@0u2ip@@@@@@@5e&&&%@O.............  ",
"  .............O@%&&&6a@@@@@@@@05@@@@@@@@@u&&&%@O.............  ",
"  .............O@%&&&s@@@@@@@@@@@@@@@@@@@@a&&&%@O.............  ",
"  .............O@%&&&a@@@@@@@@@@@@@@@@@@@@@d&&%@O.............  ",
"  .............O@%&&r@@@@@@@@@@@@@@@@@@@@@@f&&%@O.............  ",
"  .............O@%&&g@@@@@@@@@@@@@@@@@@@@@@a&&%@O.............  ",
"  .............O@%&e5@@@@@@@@@@@@@@@@@@@@@@@h&%@O.............  ",
"  .............O@%&j@@@@@@@@@@@@@@@@@@@@@@@@u&%@O.............  ",
"  .............O@%&j========================-&%@O.............  ",
"  .............O@%&&&&&&&&&&&&&&&&&&&&&&&&&&&&%@O.............  ",
"  .............O@ukkkkkkkkkkkkkkkkkkkkkkkkkkkku@O.............  ",
"  .............O@@@@@@@@@@@@@@@@@@@@@@@@@@@@@@@@O.............  ",
"  .............O@@@@@@@@@@@@@@@@@@@@@@@@@@@@@@@@O.............  ",
"  .............O@@@@@@@@@@@@@@@@@@@@@@@@@@@@@@@@O.............  ",
"  .............O@@@@@@@@@@@@@@@@@@@@@@@@@@@@@@@@O.............  ",
"  .............+@@@@@@@@@@@@@@@@@@@@@@@@@@@@@@@@+.............  ",
"  .............lzOOOOOOOOOOOOOOOOOOOOOOOOOOOOOOzl.............  ",
"  ............................................................  ",
"  ............................................................  ",
"  ............................................................  ",
"  ............................................................  ",
"  ............................................................  ",
"  ............................................................  ",
"  ............................................................  ",
"  ............................................................  ",
"  ............................................................  ",
"  ............................................................  ",
"  ............................................................  ",
"   ..........................................................   ",
"    ........................................................    ",
"                                                                ",
"                                                                "
};
