/* XPM */
static const char *ISHCAP_xpm[] = {
/* columns rows colors chars-per-pixel */
"48 48 778 2",
"9$ c #2F650D",
"VX c #29E2A9",
"U. c #048B4C",
";+ c #91C34E",
"jo c #052809",
"yo c #03CA76",
"BO c #B0D774",
"A@ c #C3DD8F",
"p$ c #172B03",
"H# c #97C45D",
"H  c #54DAAA",
"nO c #C9E498",
"A+ c #5F9725",
"~@ c #B0CB76",
"0# c #B6D87F",
"W. c #5AE7BC",
"0$ c #285B0A",
"I  c #0FB469",
"6  c #28CD90",
"I. c #097D42",
".X c #097D43",
"#X c #4DE8BC",
"p. c #02A95A",
"~X c #02C784",
"N. c #59DEAA",
"F+ c #DBEDB7",
"L+ c #DBEDB9",
"`@ c #B5D57D",
"e. c #59DEB0",
"^# c #83B549",
"u. c #46CC8D",
".@ c #BBDC84",
"XX c #028B4B",
"C+ c #70A92F",
"E@ c #76B036",
"c. c #088C4E",
"d@ c #D4E9AA",
"`O c #D4E9AB",
"|@ c #95C455",
"%  c #088045",
"6@ c #B4D87A",
"D  c #148E54",
"I@ c #A1CC62",
"&  c #1A955B",
"lO c #EDF6DA",
"Po c #EDF6DB",
"xO c #EDF6DC",
"'  c #45D59B",
"8$ c #32690F",
"%# c #BAD984",
"hO c #CDDF9F",
";# c #A7CD6A",
"j# c #447E16",
"Vo c #009D42",
"S# c #4A8518",
"@X c #45E7BC",
"|o c #009D43",
"iX c #00A953",
"Co c #009137",
"7@ c #ADD470",
"FX c #00973F",
"e@ c #7BB43A",
"Wo c #009138",
"3+ c #BACD83",
"-X c #009D48",
"#$ c #508C1E",
"). c #00913C",
"Qo c #00852E",
"s. c #009744",
"/O c #E6F2CD",
"cO c #E6F2CE",
"}  c #009D4E",
"1. c #008B39",
"D. c #008532",
"dX c #007F2B",
"Y  c #009D4F",
".O c #007926",
"2. c #007F2E",
"/@ c #C6E194",
"p  c #38D69F",
"F. c #007929",
",X c #007323",
"QO c #19681F",
"Ao c #006D1D",
"w  c #00853A",
"!o c #006D1E",
"N+ c #87BC44",
"L# c #81B545",
"G. c #006D20",
"tO c #258E41",
"mX c #06C884",
"LX c #006118",
"_# c #68A22F",
"ZO c #005B15",
"O@ c #A6D067",
"4$ c #2B5F0B",
"FO c #012807",
".+ c #93C44F",
"IX c #004F0F",
"Do c #00490D",
"7o c #00490E",
"T. c #31CC90",
"oO c #07290B",
"M  c #18BF79",
"h# c #4F891B",
"0. c #0C8D50",
"B+ c #80B83D",
"+. c #00430D",
"}. c #003D0A",
"^  c #128E53",
"n+ c #9FCC5E",
"+o c #003708",
"1+ c #003709",
")o c #EBF6D8",
"P. c #003106",
"6X c #003107",
"S@ c #CBE59D",
"F@ c #CBE59E",
"~O c #002B06",
"=. c #5CE2B5",
"Fo c #002505",
"r@ c #73AD32",
"o# c #73AD34",
"=o c #05E9BB",
":. c #17B66D",
"H+ c #E4F2CA",
"]O c #C4E18F",
"7X c #0B7E43",
"2# c #7FB53F",
"wX c #30E7BB",
"~. c #29BF76",
"[+ c #DDEEBD",
"j+ c #DDEEBE",
"n# c #8BBD4E",
"Y+ c #BDDD85",
"x+ c #BDDD86",
"*$ c #3B7412",
"l# c #A4CA69",
"_@ c #BDDD89",
"X$ c #6CA335",
"$o c #4EB06D",
"fO c #052909",
"Go c #05290B",
",$ c #47821A",
"/X c #0AE7B8",
"W# c #4D891B",
"A# c #53901E",
"'+ c #D6EAAD",
")X c #16E3A9",
"U  c #03A75B",
")+ c #599122",
"X@ c #B6D97B",
"<+ c #0A450D",
";$ c #4D7D20",
"&X c #28C278",
"o+ c #165916",
")  c #5ADCAE",
"O# c #6BA62D",
":# c #A3CD66",
"7O c #EFF7DF",
"zO c #EFF7E0",
"Y@ c #90C14F",
"r$ c #0B0600",
"<# c #90C150",
"T+ c #AFD572",
"%@ c #7DB53B",
">$ c #4C861D",
"v+ c #AFD573",
"++ c #BCCE84",
"GO c #BCCE85",
"3O c #BCCE86",
"p@ c #C2DB8E",
":o c #08C976",
"7  c #1BC988",
"'@ c #AFCF73",
")O c #E8F3D2",
"0+ c #C8E295",
"#+ c #E8F3D3",
">  c #029850",
"OX c #21CA8C",
"t+ c #89BD45",
"n@ c #89BD48",
"i  c #40D29B",
"*+ c #A8D169",
"P@ c #A8D16B",
"@@ c #95C553",
"@. c #087B3F",
"y# c #95C557",
".$ c #70A43A",
"y+ c #82B93F",
"Y. c #1AAE6E",
"C# c #639F29",
"zo c #DAEBB6",
"|O c #A1CD60",
"D@ c #CDE69F",
"Q+ c #8EC14B",
"g@ c #CDE6A1",
"eo c #01E9BC",
"1$ c #3E7813",
"*  c #26AA6E",
")# c #6FA735",
"Q# c #447F16",
",o c #00B056",
"To c #00BC65",
"t$ c #090000",
"[X c #00A44B",
" O c #009238",
":O c #009239",
"v  c #4BD7A4",
"1  c #07783D",
"/. c #00A450",
"GX c #008C36",
">O c #00862F",
" + c #9AC957",
"-O c #BADA95",
"6O c #E6F3CD",
",. c #009E4D",
"HX c #00802B",
"_. c #008633",
"L  c #38D194",
"|  c #009243",
",O c #007A27",
"T  c #009244",
"yO c #007A28",
"(@ c #C6E295",
"R  c #008637",
"fX c #007423",
"p# c #81B642",
"!X c #00AA65",
"<O c #006E1F",
"X. c #006E23",
"<X c #00681D",
"go c #006217",
"5o c #006218",
"Y# c #68A32E",
"H. c #00621A",
"c# c #A0CA66",
"<  c #068139",
"f+ c #DFEFBF",
"jX c #005612",
"_O c #DFEFC1",
"J. c #005613",
"Xo c #005010",
"{. c #005011",
"&# c #BFDE8B",
"7# c #498317",
"3X c #004A0E",
"w. c #4ACE99",
"DO c #00440C",
":$ c #4F8A20",
"uX c #05B461",
"@$ c #559122",
"!O c #003E0A",
"YX c #003E0B",
"R# c #5B9824",
"^. c #05AE5E",
"2O c #003808",
"L. c #003809",
"P  c #24C27D",
"NO c #B8DA7D",
"m# c #86BA48",
"l@ c #B8DA7F",
"6$ c #1F2E07",
"&. c #5CDDB0",
"ho c #002605",
"o  c #0B9151",
"Yo c #30BE7F",
";@ c #BED588",
"AX c #04B762",
"q. c #30B278",
"R@ c #7FB63D",
"yX c #23C578",
"8o c #BECF88",
"$# c #ABC971",
"0o c #D7E8B1",
"># c #9ECA60",
"`o c #EAF4D6",
"N  c #0AB268",
"x  c #3CB47E",
"u$ c #121702",
"eO c #BDDE86",
"&$ c #417C15",
"s# c #72AB34",
"B# c #72AB35",
"[@ c #AAD26D",
">@ c #D6EBAD",
"9. c #0A7C41",
")@ c #C3DF90",
"{+ c #D6EBB2",
"p+ c #477D20",
">+ c #84BA40",
"y@ c #5F9924",
"c+ c #B6DA7C",
"s$ c #111A02",
"OO c #DCECB9",
"*O c #CFE7A2",
"r+ c #90C24D",
"t. c #60E4B9",
"wo c #28DBA9",
"3# c #77AF38",
"X  c #098547",
"mo c #02C977",
"6+ c #E8F4D2",
"=O c #C8E396",
"n  c #3AD8A0",
"G@ c #C8E398",
"t@ c #6AA42B",
"qo c #BCE1B4",
"*o c #02E7B8",
"B. c #4CCF91",
"ZX c #1AC778",
"MX c #0EDDA4",
"]@ c #AED373",
"0  c #01A257",
"l+ c #C7E093",
"'# c #5D9926",
"t# c #9BC75D",
"Jo c #DAECB6",
"rO c #AED383",
"d  c #0DBC72",
"5@ c #BADB82",
"8X c #018A4B",
"U# c #6FA833",
"&@ c #75AF34",
"}# c #448016",
"uo c #00BD64",
"Mo c #00BD65",
"io c #00B157",
"x# c #A7CF6E",
"Ro c #00B158",
"{X c #00993F",
"9+ c #D3E8AA",
"r  c #07793E",
"^@ c #C0DC8C",
"pX c #009F49",
";X c #00933D",
"}X c #008D36",
"A. c #009946",
"a. c #009F4F",
"d. c #008D3A",
"|X c #00812C",
"S+ c #C0D68C",
"m@ c #81B73F",
"JX c #007524",
"j  c #00873B",
"q# c #B3D77C",
"uO c #006F20",
"$. c #38B47C",
"`# c #629D2A",
"gX c #00691D",
"h. c #00691F",
"1O c #006318",
"W  c #006921",
"8O c #ECF5DA",
"1X c #005D16",
"j. c #005D17",
"K# c #87B84B",
"$+ c #DFF0C2",
"|# c #3D7612",
"[  c #12B46A",
"XO c #005110",
"k. c #005111",
"#o c #6FAE68",
"<$ c #437D17",
"SO c #004B0E",
"lX c #00450C",
"7. c #003F0B",
"$  c #0C773F",
"&O c #D8ECB4",
"5X c #003909",
"z. c #003306",
"=@ c #619A25",
"rX c #3DE2AA",
"CX c #2AD690",
"@  c #05974E",
"O$ c #619A2C",
"cX c #002D06",
"8@ c #A5CF66",
"HO c #DEEDBD",
"   c None",
"@o c #002705",
"3$ c #30650D",
"]  c #30C582",
"bO c #D1E8A7",
"0X c #11C987",
"b@ c #92C351",
"f@ c #D1E8A8",
"WO c #8CBC52",
"r. c #62E5BD",
"N# c #79B03B",
"~+ c #7FB73C",
"G  c #4FCD9A",
"d+ c #D7E9B0",
"G# c #98C45E",
"+@ c #9ECB5E",
"co c #EAF5D6",
"'O c #CAE498",
"UO c #CAE499",
"/  c #3CB57E",
"q@ c #8BBF49",
"^X c #04DCA2",
"4+ c #CADE9A",
"a+ c #B7CC7E",
"8# c #A4C668",
"5+ c #E3F1C6",
"%O c #E3F1C8",
"b# c #91C054",
"m+ c #97C755",
"C@ c #538C1D",
"CO c #1C7A2B",
"eX c #3BE8BB",
"VO c #9DC867",
"=$ c #346C0F",
"2$ c #3A7311",
"D# c #407A13",
"M. c #60E5BC",
"^+ c #77B035",
"oX c #0FAB6A",
"z# c #A9D070",
"{# c #4C881B",
"Ho c #BCD086",
"ko c #BCD088",
"3  c #2EA76F",
"#. c #0F8D51",
"+X c #34DEAA",
"qO c #C8E497",
"X+ c #7DB142",
"/# c #7DB144",
"t  c #158E54",
"%o c #08BF7A",
"d# c #6AA52D",
"V# c #6AA52F",
"_o c #EEF6DC",
"KO c #EEF6DD",
"-o c #08E3AA",
":@ c #CEE5A0",
"(O c #EEF6DE",
";  c #0EB46E",
"u# c #8FC051",
"b  c #46DBA9",
">o c #01BB63",
"o@ c #AED471",
"5  c #33C98E",
"w# c #AED476",
"5# c #5D9A24",
"g  c #01A357",
"9O c #DAEDB7",
"s+ c #C7DB96",
"i# c #88BC4A",
"9X c #07AA66",
"R+ c #A7D068",
"#  c #078C47",
"i@ c #B4C979",
"R. c #45DEAC",
"No c #00B257",
"<o c #00A64B",
"s@ c #D3E9A8",
"SX c #00AC54",
"0@ c #94C452",
"IO c #D3E9A9",
"U+ c #C0DD8A",
"z  c #077A3E",
"%+ c #D3E9AC",
"=X c #00A652",
"2o c #008E36",
"aX c #00943E",
"(# c #75AA3B",
"!@ c #50891C",
":X c #008834",
"3o c #00822D",
"P# c #7BB13E",
"<. c #009443",
"f. c #008230",
"(  c #51CE9C",
" . c #008838",
"`. c #007C2A",
"V@ c #5C9723",
" o c #007624",
"q  c #009448",
"y. c #57DBA6",
"g. c #007626",
"Z  c #008235",
".. c #007C2E",
"f# c #629E27",
"=+ c #A0CC5F",
"T# c #629E29",
"&o c #00DCA1",
"KX c #006A1D",
"k  c #00762C",
"@O c #ECF6D9",
"iO c #006419",
"7+ c #ECF6DA",
"#@ c #8DC04A",
"6o c #005813",
"lo c #CCDF9D",
"PX c #005814",
"^o c #CCDF9E",
"4O c #CCDF9F",
"5. c #005816",
"aO c #005210",
"AO c #005211",
"WX c #0C9651",
"O. c #005213",
"_+ c #B9CD80",
"6. c #004C0F",
"D+ c #D2E6A7",
"Ko c #E5F2C9",
"(o c #E5F2CA",
"!  c #00460D",
"+O c #E5F2CB",
"-+ c #99C856",
"J+ c #E5F2CC",
"h+ c #E5F2CD",
"Oo c #00400B",
"u@ c #558D1E",
"M# c #80B542",
"=# c #B2D57A",
"!+ c #86BC43",
"xX c #003407",
" X c #002E05",
"RX c #002E06",
"PO c #DEEEBE",
"EX c #002805",
"u  c #43C68F",
"!# c #3C7412",
"_X c #17D78F",
"V+ c #79B136",
"a# c #79B13B",
";. c #3CC888",
";o c #0AD88E",
"E. c #55E7BE",
"Z+ c #669F29",
"Z@ c #B1CC78",
"r# c #9EC661",
"*@ c #6CA62D",
"m  c #29CE8D",
"_  c #5BE2B6",
";O c #299E56",
"-$ c #2F630C",
"JO c #F0F7E0",
"4@ c #BDDA84",
"P+ c #D0E6A5",
"K  c #48DCA8",
"wO c #C3E18E",
"## c #4D861A",
"mO c #C3E18F",
"vo c #DDF1D5",
"w+ c #B0D573",
"gO c #BDCE87",
"Q@ c #599421",
"v# c #97C25A",
"i$ c #172903",
"}@ c #9DC95E",
"2@ c #C9E29A",
"vO c #DCEEBB",
"j@ c #BCD784",
"%$ c #468218",
"d$ c #0B0300",
"z+ c #C2DE8C",
"H@ c #C2DE8F",
"{  c #02A759",
"B  c #02A75A",
"w@ c #83B941",
".# c #83B943",
"e  c #02772E",
"#O c #EEF7DE",
"a@ c #CEE6A1",
"5$ c #275609",
"f$ c #0A0000",
"s  c #1AC985",
"kO c #E7F3CE",
"]# c #579423",
"LO c #E7F3D0",
"v@ c #9BC95B",
"8+ c #E7F3D1",
"n. c #52DEAF",
"(+ c #639C27",
"NX c #1AE7BA",
"8  c #0DBE77",
"4# c #6FAA31",
"b+ c #A7D168",
"m. c #5EE6BE",
"po c #00A74C",
"}o c #00A74E",
"1o c #009B40",
"DX c #00A149",
"(. c #009B46",
"S. c #008F3A",
"Z. c #00A150",
"do c #00832D",
"@# c #56911F",
"vX c #0D8246",
"F# c #94BF57",
"-  c #19BA78",
">X c #007D2B",
"4o c #007724",
"'. c #007122",
"V. c #25BC73",
"A  c #007127",
":  c #06A85F",
"y  c #38B07A",
"Uo c #D3EAC2",
"]. c #00651B",
"4. c #00651C",
"hX c #005F18",
"*# c #B9DA83",
"So c #005913",
"S  c #005F1B",
"v. c #25B073",
"o$ c #68A032",
"Q  c #005917",
"2X c #005312",
"kX c #004D0F",
"k+ c #D2E7A8",
"7$ c #315E0E",
"c  c #4ACB96",
"UX c #00470D",
"-. c #50D8A1",
"4X c #00410B",
"*X c #05B15F",
"l. c #003B09",
"Q. c #56DFAC",
"9  c #05B166",
"|. c #003508",
"B@ c #67A32A",
"dO c #002F06",
"2+ c #002F07",
" $ c #366E0F",
"MO c #BEDE86",
"[O c #BEDE87",
"e# c #A5CB69",
"BX c #24E9BB",
"M@ c #79B238",
",# c #98C658",
"%. c #4FCF9B",
".  c #0B7C42",
"(X c #11E9BB",
"]o c #D7EBB1",
"to c #04D88F",
"<@ c #D7EBB2",
"no c #04D891",
"2  c #11894F",
"9# c #B1D378",
"$@ c #85BA42",
"YO c #B7DA7D",
"`X c #10C877",
"`+ c #CAE09A",
"=  c #23B677",
"ro c #04E4AC",
"^O c #DDECBB",
"c@ c #A4CE65",
"{@ c #A4CE66",
"~# c #85B44B",
"0O c #D0E7A5",
"*. c #61E4BB",
"{O c #B0D673",
"6# c #538E1E",
"TO c #B0D674",
"|+ c #C3DC8D",
"~o c #BDCF87",
"g# c #599521",
"C. c #03AB5C",
"9@ c #9DCA5C",
"g+ c #E9F4D3",
"`  c #54DFAF",
"Io c #E9F4D4",
"&+ c #C9E397",
":+ c #8ABE46",
"%X c #47D494",
"N@ c #71AB31",
"}O c #A9D26A",
"RO c #A9D26B",
"'o c #E2F0C5",
"K+ c #E2F0C6",
"'X c #02BA63",
"$X c #4DE1AB",
"W+ c #96C654",
"J# c #90BF55",
"-# c #A9CC6D",
"q+ c #C2DF8D",
"tX c #3AD592",
"x. c #097C42",
">. c #02A85A",
"a$ c #162703",
"W@ c #64A028",
"EO c #A2CE61",
"/o c #DBECB7",
"K@ c #B5D47A",
"nX c #02A865",
"k# c #9CC161",
"M+ c #8FC24C",
"!. c #4CD294",
"y$ c #0A0100",
"$$ c #4B871B",
"[# c #518E1E",
"~  c #08793F",
"-@ c #578F1F",
"J  c #52DFB1",
"L@ c #B4D77A",
"qX c #20DDA7",
"b. c #3FCD95",
"}+ c #CDE49F",
"k@ c #BAD880",
"l  c #01631F",
"G+ c #E0F0C1",
"w$ c #204D08",
"]+ c #E0F0C2",
"Bo c #00A84C",
"Eo c #00A84D",
",+ c #6FA534",
"]X c #00AE55",
"ao c #009C41",
"I# c #75AC38",
"u+ c #7BB338",
"3@ c #C0D988",
"so c #009037",
"X# c #7BB33B",
"Zo c #00842D",
"sX c #008A35",
"Z# c #5C9924",
"fo c #007825",
"V  c #009C4F",
"h  c #009649",
"C  c #009042",
"h@ c #C6E094",
",@ c #D9ECB3",
"4  c #38BD84",
".o c #006C1D",
"3. c #007225",
",  c #008A41",
"E  c #00782C",
"QX c #009651",
"T@ c #87BB46",
"1# c #87BB47",
"+  c #069D56",
"bX c #008A4A",
"o. c #00601A",
"/+ c #6EA82E",
"q$ c #255709",
"pO c #005A14",
"J@ c #B9D57F",
"[. c #005A16",
" @ c #BFDC87",
"1@ c #D2E8A9",
"oo c #00480D",
"sO c #00420B",
"K. c #00420C",
"i. c #1EB970",
"z@ c #B2D777",
"zX c #003C0A",
"I+ c #C5DD90",
"TX c #003607",
"+# c #619D26",
"+$ c #5B9627",
"8. c #003608",
"E+ c #9FCB5E",
"@+ c #EBF5D6",
"Lo c #EBF5D7",
"$O c #EBF5D8",
"O+ c #002A05",
"F  c #3DB57F",
" # c #8CBF4C",
"9o c #CBDE9C",
"a  c #2AD396",
"{o c #2AA966",
"i+ c #73AC32",
"O  c #0B9B57",
"x@ c #ABD36E",
"xo c #E4F1C8",
"E# c #54921F",
"e+ c #98C756",
"U@ c #98C758",
"e$ c #182E04",
"bo c #36DBA7",
"f  c #04AF63",
"5O c #DDEDBB",
"jO c #DDEDBC",
"[o c #C4E0A5",
/* pixels */
"                                                                                                ",
"                                                                  . X o O + @ #                 ",
"                                                              $ % & * = - ; : > , <             ",
"                                                            1 2 3 4 5 6 7 8 9 0 q w e           ",
"                                                          r t y u i p a s d f g h j k l         ",
"                                                        z t x c v b n m M N B V C Z A S         ",
"                                                      z D F G H J K L P I U Y T R E W Q !       ",
"                                                    ~ ^ / ( ) _ ` ' ] [ { } |  ...X.o.O.+.      ",
"                                                  @.#.$.%.&.*.=.-.;.:.>.,.<.1.2.3.4.5.6.7.8.    ",
"                                                9.0.q.w.e.r.t.y.u.i.p.a.s.d.f.g.h.j.k.! l.z.    ",
"                                              x.c.v.b.n.m.M.N.B.V.C.Z.A.S.D.F.G.H.J.6.K.L.P.    ",
"                                            I.U.Y.T.R.E.W.Q.!.~.^./.(.)._.`.'.].[.{.! }.|. X    ",
"                                          .XXXoXOX+X@X#X$X%X&X*X=X-X;X:X>X,X<X1X2X3X4X5X6X      ",
"                                        7X8X9X0XqXwXeXrXtXyXuXiXpXaXsXdXfXgXhXjXkXlXzXxXcX      ",
"                                      vXbXnXmXMXNXBXVXCXZXAXSXDXFXGXHXJXKXLXPXIXUXYXTXRXEX      ",
"                                    WXQX!X~X^X/X(X)X_X`X'X]X[X{X}X|X o.oLXPXXoooOo+oRX@o        ",
"                                    #o$o%o&o*o=o-o;o:o>o,o<o1o2o3o4o.o5o6oXo7o4X+oRX@o          ",
"                                  8o9o0oqowoeorotoyouoiopoaosodofo.ogo6oXo7o4X+ocXhojo          ",
"                                kolozoxocovobonomoMoNoBoVoCoZofoAogoSoXoDo4X+ocXFoGo            ",
"                              HoloJoKoLoPoIoUoYoToRoEoVoWoQofo!ogoSoXoDo4X+ocXFoGo              ",
"                            ~o^o/o(o)o_o`o'o]o[o{o}o|o OQo.O!o5oSoXODo4X+ocXFooO                ",
"                          Ho^oOO+O@O#O$O%O&O*O=O-O;O:O>O,O<O1OSoXODo4X2OcXFoGo                  ",
"                        3O4O5O6O@O7O8O+O9O0OqOwOeOrOtOyOuOiOpOaO3XsO5XdOhofO                    ",
"                      gOhOjOkOlOzOxOcOvObOnOmOMONOBOVOCO].ZOAOSODOl.6XEXFO                      ",
"                    GOhOHOkOlOJOKOLOPOIOUOmOMOYOTOROEOWOQO2X3XDO!OxX~OEX                        ",
"                  GO^o^O/O@OzO(O)O_O`O'O]O[OYO{O}O|O +.+X+o+DO!O+odOO+                          ",
"                ++loOO(o@+(OKO#+$+%+&+mOeOYO{O*+=+-+;+:+>+,+<+1+6X2+                            ",
"              3+4+zo5+6+@O7+8+_O9+0+q+eOYOw+*+=+e+r+t+y+u+i+p+|.6X                              ",
"            a+s+d+f+(og+Ioh+j+k+l+z+x+c+v+b+n+m+M+N+B+V+C+Z+A+                                  ",
"            S+D+F+G+H+J+K+L+P+I+U+Y+c+T+R+E+W+Q+!+~+^+/+(+)+                                    ",
"          _+`+'+F+f+]+[+{+}+|+ @.@X@o@O@+@@@#@$@%@&@*@=@-@                                      ",
"          ;@:@>@,@Jo<@1@2@3@4@5@6@7@8@9@0@q@w@e@r@t@y@u@                                        ",
"        i@p@a@s@d@f@g@h@j@k@l@z@x@c@v@b@n@m@M@N@B@V@C@                                          ",
"        Z@A@S@D@F@G@H@J@K@L@v+P@I@U@Y@T@R@E@/+W@Q@!@                                            ",
"        ~@^@/@(@)@_@`@'@]@[@{@}@|@ #.#X#o#O#+#@###                                              ",
"        $#%#&#_@*#=#-#;#:#>#,#<#1#2#3#4#B@5#6#7#                                                ",
"        8#9#0#q#w#e#r#t#y#u#i#p#a#s#d#f#g#h#j#                                                  ",
"        k#l#z#x#c#v#b#n#m#M#N#B#V#C#Z#A#S#D#                                                    ",
"          F#G#H#J#K#L#P#I#U#Y#T#R#E#W#Q#!#                                                      ",
"          ~#^#^#/#(#)#_#`#'#]#[#{#}#|# $                                                        ",
"            .$X$o$O$+$@$#$$$%$&$*$=$-$                                                          ",
"              ;$:$>$,$<$1$2$=$3$4$5$                                                            ",
"                6$7$8$9$4$0$q$w$e$r$                                                            ",
"                t$y$u$i$p$a$s$d$f$f$                                                            ",
"                                                                                                ",
"                                                                                                ",
"                                                                                                ",
"                                                                                                "
};
