/* XPM */
static const char *paraSettings_xpm[] = {
/* columns rows colors chars-per-pixel */
"64 64 25 1",
"2 c #737474",
", c #6C7672",
"o c #494E4B",
": c #585A59",
"$ c #FFFFFF",
"5 c #797979",
"& c #4A4F4C",
"= c #CECFD1",
"6 c #545756",
"; c #5C6862",
"4 c #595B5A",
"@ c #6D6E6E",
"3 c #69746F",
"# c #898989",
"X c #464947",
"< c #555857",
"> c #767D7C",
"  c None",
"% c #565958",
"O c #4A4E4B",
"1 c #BFBFC1",
"+ c #535755",
"* c #717272",
". c #403F3F",
"- c #697570",
/* pixels */
"                                                                ",
"                                                                ",
"                                                                ",
"                                                                ",
"                                                                ",
"                                                                ",
"                                                                ",
"                                                                ",
"                                                                ",
"                                                                ",
"                              ...                               ",
"                             .....                              ",
"                             .....                              ",
"                            .......                             ",
"                           .........                            ",
"                 ..     ...............     ..                  ",
"                ..... ................... .....                 ",
"               .................................                ",
"               .................................                ",
"                ...............................                 ",
"                ...............................                 ",
"                 .............XXX.............                  ",
"                ..........oO+@#$#@+Oo..........                 ",
"                .........o%$$$$$$$$$%o.........                 ",
"               .........&*$$$$$$$$$$$*&.........                ",
"               ........o*$$$=-;;;-=$$$*o........                ",
"              ........o:$$$>;.....;>$$$:o........               ",
"              ........&$$$,;.......;,$$$&........               ",
"             .........<$$1;.........;1$$<.........              ",
"           ..........X2$$3....   ....3$$2X..........            ",
"          ...........o$$$;...     ...;$$$o..........            ",
"          ...........o$$$;...     ...;$$$o..........            ",
"          ...........o$$$;...     ...;$$$o..........            ",
"           ..........X2$$3....   ....3$$2X..........            ",
"             .........%$$1;.........;1$$<.........              ",
"              ........&$$$,;.......;,$$$&........               ",
"              ........o4$$$>;.....;>$$$:o........               ",
"               ........o5$$$=-;;;-=$$$*o........                ",
"               .........&5$$$$$$$$$$$*&.........                ",
"                .........o%$$$$$$$$$%o.........                 ",
"                ..........o&6@#$#@+Oo..........                 ",
"                 .............XXX.............                  ",
"                ...............................                 ",
"                ...............................                 ",
"               .................................                ",
"               .................................                ",
"                ..... ................... .....                 ",
"                 ..     ...............     ..                  ",
"                           .........                            ",
"                            .......                             ",
"                             .....                              ",
"                             .....                              ",
"                              ...                               ",
"                                                                ",
"                                                                ",
"                                                                ",
"                                                                ",
"                                                                ",
"                                                                ",
"                                                                ",
"                                                                ",
"                                                                ",
"                                                                ",
"                                                                "
};
