/* XPM */
static const char *quit64_xpm[] = {
/* columns rows colors chars-per-pixel */
"64 64 445 2",
"^X c #D66D6D",
"=. c #DC7B7B",
",O c #B40303",
"3X c #B70707",
">O c #B70D0D",
"V. c #BD0C0C",
"rX c #871818",
"+O c #C01010",
"XX c #C31111",
"5X c #C61515",
"kX c #C91616",
"7X c #BD1B1B",
"$o c #CC1A1A",
"h. c #C32020",
"EX c #D21F1F",
")X c #D82424",
"so c #B72E2E",
"@. c #C62D2D",
"ro c #DE2929",
"OX c #C32F2F",
"@O c #BA3232",
"do c #D22E2E",
"_  c #C63030",
"1O c #C33232",
"5o c #E12D2D",
"7. c #C63333",
"KO c #BD3636",
"Jo c #D83333",
"8o c #C63636",
"no c #E73232",
"dX c #C63C3C",
"!o c #ED3737",
"v  c #C63F3F",
"p  c #C64242",
"s  c #C04343",
"=O c #F33C3C",
"*. c #C64545",
"I  c #C64848",
"zO c #F94141",
"d  c #C94949",
"<. c #C94C4C",
"-O c #EA4E4E",
"|  c #CC5353",
"h  c #CC5656",
"CO c #F05353",
"V  c #DB7C7C",
"*  c #DB7F7F",
"2X c #B60505",
"ZX c #B90909",
"P. c #BC0A0A",
"@X c #B90C0C",
"vO c #B90F0F",
"'  c #891717",
"T. c #BF0E0E",
"J. c #BC1010",
"w. c #8C1818",
"W. c #C21212",
"4X c #C51313",
"pX c #C81717",
"1X c #BC1919",
"bX c #CB1818",
"l. c #C51F1F",
"PX c #D11D1D",
"6O c #A12828",
"G. c #C22424",
"fo c #D42121",
"{X c #DA2626",
"Ho c #B93030",
"i. c #C52E2E",
"uO c #C23030",
"q. c #C82F2F",
"4o c #E02B2B",
"A  c #C53131",
"2. c #C53434",
"uo c #E32F2F",
"Lo c #E63030",
"{  c #C53737",
"Wo c #DA3535",
"No c #C23939",
"Q  c #C53A3A",
"Io c #EC3535",
"B  c #C53D3D",
"po c #BF3E3E",
"p. c #C83E3E",
"%O c #EF3939",
"o. c #C54040",
"!. c #C84444",
"4O c #F53E3E",
"<  c #C84747",
"nO c #E94343",
"Fo c #DA4747",
"sO c #FB4343",
"/o c #DD4848",
"~  c #CB5151",
"5O c #EC5050",
"4  c #CB5757",
"   c None",
"K  c #D46969",
"sX c #D76D6D",
"$X c #B80707",
"K. c #BB0B0B",
"C. c #BE0C0C",
"N. c #BE0F0F",
"'. c #C11010",
">. c #8B1919",
"9. c #9D1919",
"oO c #B81616",
"iX c #C71515",
"qX c #BE1B1B",
"lX c #CA1919",
"BX c #CD1A1A",
"+X c #BE1E1E",
"n. c #C11F1F",
";  c #AC2424",
"UX c #D31F1F",
"/X c #D62323",
":O c #BB2C2C",
"_X c #D92727",
"|X c #DC2828",
"-. c #C72D2D",
":. c #C73030",
"x  c #C43232",
"yo c #E22D2D",
"%. c #B83434",
"kO c #BB3535",
"6  c #C43535",
"9X c #C73636",
"$O c #E83232",
"W  c #C43838",
"Y  c #C73939",
"'o c #DC3737",
"F  c #C43B3B",
"#O c #DF3838",
"FX c #CD3B3B",
"x. c #C73F3F",
"~X c #D03F3F",
"#. c #C74242",
" o c #D34040",
"9  c #C74545",
"eO c #F74040",
"y  c #CA4949",
"z  c #C74B4B",
"t. c #CD5353",
"=  c #CD5C5C",
"+. c #DC7C7C",
"Go c #B40404",
";X c #B70505",
"). c #BA0909",
"uX c #BA0C0C",
"7O c #B70E0E",
"B. c #BD0D0D",
"A. c #C00E0E",
">o c #8D1818",
"[. c #C31212",
"8X c #C61616",
";O c #932020",
"cX c #C91717",
"J  c #9F1E1E",
"nX c #CC1B1B",
"SX c #CF1C1C",
"j. c #C31E1E",
"/. c #C02020",
"WX c #D52121",
"6X c #B42828",
"b. c #C32727",
"T  c #AE2C2C",
"}X c #DB2626",
",o c #B42E2E",
"^. c #C32D2D",
"zo c #B72F2F",
"AO c #C02F2F",
"2o c #DE2A2A",
".. c #C62E2E",
"R  c #BA3333",
"ho c #E42F2F",
"&X c #C63434",
"D. c #C33636",
"XO c #BD3A3A",
"u. c #C33939",
"zX c #C93838",
"So c #EA3434",
"aX c #C03E3E",
"^o c #ED3838",
"RX c #CF3D3D",
"[o c #F03939",
"l  c #C64040",
"&  c #C04141",
"^  c #C64343",
"pO c #F33D3D",
"}  c #C64646",
"c  c #C94747",
"X  c #C64949",
"ko c #D84646",
"aO c #F94242",
"xO c #FC4343",
"%  c #C95050",
"C  c #CC5454",
"mO c #F35555",
"7o c #D56C6C",
"r. c #DB7A7A",
"OO c #B30202",
"3  c #DB7D7D",
";o c #B60606",
".X c #B90707",
"HO c #B90A0A",
"I. c #BC0B0B",
":  c #DE8787",
"NO c #B91010",
"<O c #BF0F0F",
"c. c #891818",
"]. c #C21010",
"%X c #C51414",
"hX c #C81515",
"]X c #CB1919",
"wo c #CE1A1A",
"WO c #9E2525",
"VX c #CE1D1D",
"JX c #D11E1E",
"(X c #D72323",
"0X c #B32929",
"eo c #DD2828",
"y. c #C82D2D",
"U  c #C52F2F",
"9O c #C23131",
"!  c #B93434",
"Z  c #C53232",
"SO c #BC3535",
"&. c #C53535",
":o c #C83636",
"vo c #E63131",
"(  c #C53838",
")o c #C23A3A",
"CX c #CB3A3A",
"P  c #C53B3B",
"]o c #EC3636",
"b  c #C53E3E",
"*X c #C83F3F",
"[  c #C54141",
"&O c #F23B3B",
"5. c #C84242",
"q  c #C84545",
"io c #D74444",
"rO c #F84040",
"DO c #EC4545",
"w  c #C84E4E",
"tO c #EF5252",
"(o c #CE5959",
"$  c #CE6262",
"Bo c #B50404",
" X c #B80808",
"L. c #BB0909",
"yO c #B80E0E",
"Y. c #BE0D0D",
"X. c #8B1717",
"GO c #BB1212",
"9o c #8B1A1A",
"S. c #C11111",
":X c #C41212",
"+o c #C71616",
"vX c #CA1717",
"GX c #D01C1C",
"u  c #A92424",
"KX c #D32020",
"f. c #C42424",
"UO c #B52828",
"[X c #D92525",
"fO c #BB2D2D",
".O c #B23030",
"qo c #D02B2B",
"F. c #C42D2D",
"BO c #C12F2F",
";. c #C72E2E",
"3o c #DF2A2A",
"Q. c #B83232",
"j  c #C43333",
"5  c #C43636",
"To c #BE3A3A",
"Zo c #E83333",
"E  c #C43939",
"D  c #C43C3C",
".o c #BE3D3D",
"~o c #EE3838",
"i  c #C74343",
"3O c #F43D3D",
"S  c #CA4747",
".  c #C74949",
"7  c #CA4A4A",
"LO c #EE4747",
"e. c #CD5151",
"PO c #EB4F4F",
"dO c #F15454",
">  c #CD5A5A",
"Xo c #D66C6C",
"Oo c #B70606",
"-X c #B70909",
"fX c #BA0A0A",
"U. c #BD0B0B",
"ZO c #BA1010",
"R. c #C00F0F",
"wX c #C61414",
"m. c #C01818",
"NX c #CC1919",
"IX c #D21E1E",
"+  c #AE2424",
"z. c #C62323",
"TX c #D52222",
"<X c #B42929",
"YO c #B72A2A",
"#o c #CC2828",
"1o c #DB2727",
"a. c #C62C2C",
"Vo c #B73030",
" . c #C62F2F",
"=o c #DE2B2B",
"to c #E12C2C",
"`  c #C63232",
"~. c #C33434",
",X c #C63535",
"bo c #E73131",
"oo c #C33A3A",
"Do c #EA3535",
"Qo c #ED3636",
"tX c #BD3E3E",
"2O c #E13B3B",
"{o c #F03A3A",
"`X c #D23F3F",
"f  c #C64141",
"2  c #C04242",
"8. c #C64444",
"lO c #E74040",
"wO c #F63F3F",
" O c #F04040",
")  c #C64747",
"k  c #C94848",
"Yo c #DB4848",
"6. c #C94B4B",
"m  c #CC5555",
"cO c #F35656",
"yX c #D25D5D",
"3. c #DB7B7B",
"_o c #B30303",
"hO c #B60404",
"_. c #B90808",
"jO c #BC0C0C",
"Z. c #BF0D0D",
"#  c #DE8888",
"Eo c #C21111",
"(. c #BC1212",
">X c #C51515",
"jX c #C81616",
"H. c #BF1919",
"=X c #BC1B1B",
"AX c #CE1B1B",
"8  c #AA2424",
"IO c #A12727",
"DX c #D11F1F",
"YX c #D42020",
"d. c #C52727",
"!X c #D72424",
"%o c #DA2525",
"s. c #C52A2A",
"MO c #BC2D2D",
"0o c #B62E2E",
"<o c #CE2A2A",
"JO c #BF2E2E",
"v. c #C52D2D",
"*o c #DD2929",
"`o c #B93232",
"H  c #C53030",
"xo c #D42F2F",
"{. c #C53333",
"go c #E32E2E",
"o  c #BC3636",
"O. c #C53636",
"Ro c #C23838",
"jo c #E63232",
"Ao c #E93333",
"@o c #CB3838",
"G  c #C53C3C",
"Uo c #EC3737",
"LX c #CE3C3C",
"|o c #EF3838",
"N  c #C53F3F",
"qO c #E33D3D",
"*O c #F23C3C",
"-o c #D44141",
",  c #C84646",
"O  c #C54B4B",
"g  c #C84C4C",
"1  c #C84F4F",
"]  c #CB5050",
"r  c #CB5656",
"@  c #D15E5E",
"lo c #B50505",
"#X c #B80606",
"`. c #BB0A0A",
"TO c #881717",
"gO c #B80F0F",
"8O c #BE0E0E",
"$. c #8B1818",
"E. c #C10F0F",
"|. c #BB1313",
"oX c #C41313",
"M. c #BE1414",
"gX c #C71414",
"xX c #9A1D1D",
"eX c #C71717",
"MX c #CA1818",
"HX c #D01D1D",
"k. c #C41F1F",
"g. c #C42222",
"}. c #C12424",
"QX c #D62222",
"&o c #DC2727",
"RO c #B52F2F",
"bO c #C13030",
"Ko c #DF2B2B",
"4. c #C72F2F",
",. c #B83333",
"M  c #C43131",
"0O c #BB3434",
"Co c #D63131",
"t  c #C43434",
"ao c #C73535",
"co c #E53030",
"/  c #C43737",
"mX c #CA3939",
"mo c #E83434",
"L  c #C43A3A",
"Po c #EB3535",
"'X c #BE3E3E",
"1. c #C43D3D",
"EO c #CA3F3F",
"0. c #BE4141",
"}o c #F13A3A",
"e  c #C14242",
"iO c #E53F3F",
"0  c #C74444",
"6o c #D64343",
"VO c #EB4444",
"Mo c #D94747",
"n  c #C74A4A",
"a  c #C74D4D",
"-  c #CA4E4E",
"FO c #EE5151",
/* pixels */
"                                                                                                                                ",
"                                                                                                                                ",
"                                                                                                                                ",
"                        . X                                                                       o O +                         ",
"                      @ # $ %                                                                   & * = - ;                       ",
"                    @ : > , < 1                                                               2 3 4 5 6 7 8                     ",
"                  @ # > , 9 0 q w                                                           e 3 r 6 6 6 t y u                   ",
"                @ : > , 9 0 i p i a                                                       s 3 r 6 6 6 6 6 t d u                 ",
"              @ : > , 9 0 i p f f i g                                                   2 3 h 6 t j t t t t j k u               ",
"            @ : > , 9 0 i p f f f l f z                                               2 3 h t t j j j j j x x x c u             ",
"          @ # > , 9 0 i p f f f l v b l n                                           2 3 m j x x x x x x x x x x M c 8           ",
"        @ # > , 9 0 i p f f l l N b B B b X                                       2 V C x x x x x x x x x Z Z Z Z A S u         ",
"      C : > , 9 0 i p f f l l N b B B D F G X                                   e V m x x x A A A A A A A A A A A A H S J       ",
"      K = , 9 0 i p f f l v N b B G F L L L P I                               2 V C Z A A A A A H H H H H U U H U U H Y T       ",
"      R m 9 0 i p f f l l N b B G F L L L E W Q I                           2 V C A A A H H U H U H H U U U U U U U A i         ",
"        ! ~ ^ p f f f l N b B G F L L L E W / / ( )                       2 V C A H H H U U U U U U U U U U _ _ _ ` ^ '         ",
"          ! ] [ f f l N b B G F L L L E W / / 5 6 { }                   2 V | H H U U U U U U  . . ... . . . . ._ i X.          ",
"            ! - o.l v b B G F L L L E W / / 5 6 6 6 O.}               2 +.| H U U U U  . . . ... .........@... .#.$.            ",
"              %.- b b B G F L L L E W / / 5 6 6 6 t t &.*.          e =.C H U U  . . . .......@...-.;.;.;.;.:.i >.              ",
"                ,.<.1.B D L L L E W / / 5 6 6 6 t t j x 2.*.      2 3.| U U  . . .........;.;.;.;.;.;.;.;.4.5.X.                ",
"                  ,.6.F F L L E W / / 5 6 6 6 t t j x x x 7.8.9.0.3.| H  . . .......;.;.;.;.;.-.-.-.-.-.q.5.w.                  ",
"                    ,.d L L E W / / 5 6 6 6 t t j x x x A A ` e.r.t._  . .....;.;.;.;.;.-.-.-.-.-.-.y.q.5.w.                    ",
"                      ,.k u.W / / 5 6 6 6 t t j x x A A A H H i.p. . . ...-.a.s.d.f.g.h.j.j.k.k.k.l.z.x.c.                      ",
"                        ,.< / / 5 6 6 6 t t j x x A A H H U U _ v.b.n.m.M.N.B.V.C.C.C.Z.Z.A.A.A.A.S.x '                         ",
"                          ,., D.6 6 6 t t j x x A A H H F.G.H.J.K.L.P.I.U.V.C.Y.Y.Z.T.A.A.R.E.E.W.j '                           ",
"                            Q.!.~.6 t t j x x A A ^./.(.)._.).`.`.I.I.V.C.C.Y.Z.A.A.R.E.'.].].[.{.$.                            ",
"                              Q.!.t t j x x M }.|. X.X_.).).`.`.I.U.V.C.Y.Z.A.A.R.E.'.].].XXoX2.$.                              ",
"                                Q.5.j x OX+X@X#X$X_._.).).`.P.I.V.V.Y.Z.T.A.R.E.'.].XXXXXX%X&Xc.                                ",
"                                  Q.*X=X-X;X$X$X_._.).).`.P.I.V.C.Y.Z.A.A.E.'.].XXXXXX:X>X,X$.                                  ",
"                                    <X1X2X3X$X_._.).).`.P.I.V.C.Y.Z.A.R.E.].].XXXX:X4X5X,X$.                                    ",
"                                      6X7X#X$X_.).).`.P.I.V.C.Y.T.A.R.'.].XXXX:X:X4X8X9X$.                                      ",
"                                        0XqX$X).).`.`.I.V.C.Y.Z.A.E.'.].XXXX:X4XwXeX9XrX                                        ",
"                                        tXyXuX).`.`.I.V.C.Y.T.A.E.].XXXX:X4X4XwXiXpX9X>.                                        ",
"                                      aXsXdXfX`.`.I.V.C.Y.Z.A.E.].XXXX:X4XwXgXhXjXkXlXzXxX                                      ",
"                                    aXsXP fX).`.I.U.V.Y.Z.A.E.'.XXXX:X4XwXiXhXkXcXvXbXnXmX                                      ",
"                                  aXsXP ).).`.P.I.V.C.Z.A.R.'.].XX:X4XwXiXhXkXvXMXbXNXBXVXCX                                    ",
"                                aXsXP ZX).).`.I.V.C.Y.T.A.E.].XX:X4XwXiXhXkXvXbXNXBXBXAXSXDXFX                                  ",
"                              aXsXP _.).).`.P.U.V.Y.Z.A.E.].XX:X4XwXiXhXkXvXbXNXBXAXSXGXHXJXKXLX                                ",
"                            aXsXP _._.).`.`.I.V.C.Z.A.E.].XXXX:XwXiXhXkXvXbXNXBXAXSXHXPXIXUXYXTXRX                              ",
"                          aXsXF $X_._.).`.I.U.V.Y.T.A.E.].XX:X4XwXhXkXvXbXNXBXAXSXHXJXEXKXYXWXQX!X~X                            ",
"                        aX^XL $X$X_.).).`.I.V.C.Z.A.E.].XX:X4XwXiXjXcXbXNXBXAXSXHXJXUXYXWXTX/X(X)X_X`X                          ",
"                      'X^XL 3X$X_._.).`.P.U.V.Y.T.A.'.].XX:X4XgXhXkXvX]XBXAXSXHXJXUXYXWXQX(X)X[X{X}X|X o                        ",
"                    .oXoooOo$X$X_.).).`.I.V.C.Z.A.E.].XX:X4X+o@o#ovXbX$oAXSXHXJXUXYXWXQX(X[X%o}X&o|X*o=o-o                      ",
"                  .oXooo;oOo$X$X_.).`.`.I.V.Y.T.A.E.].XX:X8X:o>o,o<oNXBXAXHXJXUXYXWXQX)X[X{X1o|X*o2o3o4o5o6o                    ",
"                .o7ooo;oOoOo$X_._.).`.I.U.C.Y.A.R.].XX:X5X8o9o    0oqowoSXPXEXYXWXQX)X[X{X&oeoro3o4otoyoyouoio                  ",
"              po7ou.2X;oOo3X$X_.).).`.I.V.C.Z.A.E.].XX%Xao'         sodoGXIXUXfoQX(X[X{X&oeo2o4otoyogogohohojoko                ",
"            poXou.lo2X;oOo$X$X_.).`.`.I.V.Y.T.A.'.].oX,Xc.            zoxoIXYXTX(X)X{X1oeo2o4otoyohohocovobonomoMo              ",
"          poXoNoBolo2X;oOo$X$X_.).`.P.U.V.Y.A.R.].oX&Xc.                VoCoWXQX)X[X}Xeo2o4otogohocobonoZoAoAoSoDoFo            ",
"        po7oNoGoBolo2X;oOo$X_._.).`.I.V.C.Z.A.E.[.{.c.                    HoJo(X[X{X&oroKotogohoLonoZoSoSoPoIoIoIoUoYo          ",
"      To7oRoGoGoBolo2XOo3X$X_.).).`.I.V.C.Z.A.Eoj '                         HoWo[X1oeo3otoyohoLonoAoSoPoQo!o~o~o~o!o^o/o        ",
"      (o)o_oGoGoBolo;oOo3X$X_.).).`.I.V.Y.Z.'.x '                             `o'o&oro4oyogocoboAoSo]o!o~o[o{o}o{o[o|o O.O      ",
"      XOoOOOGoGololo;oOo$X$X_.).).`.I.V.Y.+Ox '                                 @O#Orotoyohovo$OSo]o!o%O}o&O*O=O*O&O}o-O;O      ",
"        :O>O,OGolo2X;oOo$X$X_.).`.P.I.V.<O1O'                                     R 2OtogocoboAoPo!o%O}o*O3O4O4O4O3O5O6O        ",
"          :O7O,Olo2X;oOo$X$X_.).`.P.U.8O9OX.                                        0OqOgoLo$OSo]o~o{o&O3OwOeOrOrOtO6O          ",
"            :OyOBo2X;oOo$X$X_.).`.P.B.uOX.                                            0OiOLo$OSoQo%O}opO4OrOaOsOdO6O            ",
"              fOgOhO;oOo$X$X_.).`.jOuO'                                                 kOlOAoPo!o%O&O3OwOzOxOcO6O              ",
"                :OvO2XOo$X$X_.).jObO'                                                     kOnOPo!o%O&O3OwOzOmO6O                ",
"                  MONOOo$X$X_.K.BO'                                                         kOVOQo%O}opOwOCO6O                  ",
"                    MOZO#X$XfXAO'                                                             SODO~o{o=OFO6O                    ",
"                      MOGOHOJOX.                                                                KOLO[oPOIO                      ",
"                        UOYOTO                                                                    ROEOWO                        ",
"                                                                                                                                ",
"                                                                                                                                ",
"                                                                                                                                "
};
