/* XPM */
static const char *settings64_xpm[] = {
/* columns rows colors chars-per-pixel */
"64 64 67 1",
"O c #3E92E8",
"J c #8DBFF1",
"A c #E6F1FC",
"8 c #77B2EF",
"c c #C6DFF8",
"> c #57A0EB",
"S c #B0D2F6",
"* c #FFFFFF",
"e c #90C0F2",
"& c #DFEDFB",
"< c #BFDBF7",
"# c #C9E0F9",
"B c #F8FBFE",
", c #89BCF1",
"5 c #D8E9FA",
"Z c #4998E9",
"u c #C2DCF8",
"q c #82B8F0",
"H c #DBEAFB",
"+ c #3E91E7",
"4 c #4395E9",
"o c #3E91E8",
"l c #529EEA",
"M c #CBE2F9",
"- c #5CA3EC",
"2 c #8BBEF1",
"n c #E4F0FC",
"3 c #559FEB",
"9 c #84BAF0",
"  c None",
"y c #FDFEFF",
"x c #DDECFB",
"i c #6EADEE",
"F c #BDDAF7",
"V c #4E9BEA",
". c #3D92E7",
"X c #3D92E8",
"7 c #F6FAFE",
"h c #87BBF1",
"t c #D6E8FA",
"d c #B6D6F6",
"a c #4797E9",
"s c #EFF6FD",
"1 c #80B7F0",
"6 c #CFE4F9",
": c #60A5EC",
"% c #4093E8",
"f c #B9D7F7",
"m c #E8F2FC",
"r c #79B3EF",
"@ c #59A1EB",
"w c #D2E5FA",
"z c #92C1F2",
"= c #E1EEFB",
"0 c #EBF3FD",
"$ c #FAFCFE",
"p c #62A7EC",
"v c #BBD9F7",
"N c #4C9AEA",
"b c #9BC7F3",
"C c #D4E7FA",
"j c #65A8ED",
"k c #B4D5F6",
"G c #4596E9",
"g c #94C3F2",
"D c #7EB6F0",
"; c #5EA4EC",
/* pixels */
"                                                                ",
"                                                                ",
"     ..XooooooooooooooooooooooooooooooooooooooooooooooooX..     ",
"    XOOOOOOOOOOOOOOOOOOOOOOOOOOOOOOOOOOOOOOOOOOOOOOOOOOOOOOX    ",
"   OOOOOOOOOOOOOOOOOOOOOOOOOOOOOOOOOOOOOOOOOOOOOOOOOOOOOOOOOX   ",
"  .OOOOOOOOOOOOOOOOOOOOOOOOOOOOOOOOOOOOOOOOOOOOOOOOOOOOOOOOOO+  ",
"  oOOOOOOOOOOOOOOOOOOOOOOOOOOOOOOOOOOOOOOOOOOOOOOOOOOOOOOOOOOo  ",
"  XOOOOOOOOOOOOOOOOOOOOOOOOOOOOOOOOOOOOOOOOOOOOOOOOOOOOOOOOOOX  ",
"  oOOOOOOOOOOOOOOOOOOOOOOOOOOOOOOOOOOOOOOOOOOOOOOOOOOOOOOOOOOo  ",
"  oOOOOOOOOOOOOOOOOOOOOOOOOOOOOOOOOOOOOOOOOOOOOOOOOOOOOOOOOOOo  ",
"  oOOOOOOOOOOOOOOOOOOOOOOOOOOOOOOOOOOOOOOOOOOOOOOOOOOOOOOOOOOo  ",
"  oOOOOOOOOOOOOOOOOOOOOOOOOOOO@#$#@OOOOOOOOOOOOOOOOOOOOOOOOOOo  ",
"  oOOOOOOOOOOOOOOOOOOOOOOOOOO%&***=%OOOOOOOOOOOOOOOOOOOOOOOOOo  ",
"  oOOOOOOOOOOOOOOOOOOOOOOOOOO-*****;OOOOOOOOOOOOOOOOOOOOOOOOOo  ",
"  oOOOOOOOOOOOOOOOOOOOOOOOOOO:*****:OOOOOOOOOOOOOOOOOOOOOOOOOo  ",
"  oOOOOOOOOOOOOOOOOOOOOOOOO>,<*****<,>OOOOOOOOOOOOOOOOOOOOOOOo  ",
"  oOOOOOOOOOOOOOO%123OOO425***********524OOO321%OOOOOOOOOOOOOo  ",
"  oOOOOOOOOOOOOO%6**78O90***************09O87**6%OOOOOOOOOOOOo  ",
"  oOOOOOOOOOOOOOq****$w*******************w$****qOOOOOOOOOOOOo  ",
"  oOOOOOOOOOOOOOe*******************************eOOOOOOOOOOOOo  ",
"  oOOOOOOOOOOOOO>7*****************************7>OOOOOOOOOOOOo  ",
"  oOOOOOOOOOOOOOOr$***************************$rOOOOOOOOOOOOOo  ",
"  oOOOOOOOOOOOOOOOt***************************tOOOOOOOOOOOOOOo  ",
"  oOOOOOOOOOOOOOO2**********yu2ipi2uy**********2OOOOOOOOOOOOOo  ",
"  oOOOOOOOOOOOOOas*********d3OOOOOOO3f*********saOOOOOOOOOOOOo  ",
"  oOOOOOOOOOOOOOg********$hOOOO>j>OOOOh$********gOOOOOOOOOOOOo  ",
"  oOOOOOOOOOOOOO&********hOOOg0***0gOOOh********&OOOOOOOOOOOOo  ",
"  oOOOOOOOOOOOO:********kOOl6*******6lOOk********:OOOOOOOOOOOo  ",
"  oOOOOOOOOOOOOz*******$3Oax*********xaO3$*******zOOOOOOOOOOOo  ",
"  oOOOOOOOOOO@jc*******vOOb*****=*****bOOv*******cj@OOOOOOOOOo  ",
"  oOOOOOOOO-n**********9OOm***MNONM***mOO9**********nOOOOOOOOo  ",
"  oOOOOOOOOw***********pO3***BVOOOVB***3Op***********OOOOOOOOo  ",
"  oOOOOOOOO$***********3Op***=OOOOO&***pO3***********OOOOOOOOo  ",
"  oOOOOOOOOC***********:O3***BVOOOVB***3Op***********OOOOOOOOo  ",
"  oOOOOOOOO-n**********9OOm***#ZOZ#***mOO9**********AOOOOOOOOo  ",
"  oOOOOOOOOOO-jc*******fOOb*****x*****bOOv*******cj-OOOOOOOOOo  ",
"  oOOOOOOOOOOOOz*******BVOax*********xaO3$*******zOOOOOOOOOOOo  ",
"  oOOOOOOOOOOOO:********SOOl6*******63OOk********:OOOOOOOOOOOo  ",
"  oOOOOOOOOOOOOO&********DOOOg0***0gOOOh********&OOOOOOOOOOOOo  ",
"  oOOOOOOOOOOOOOg********BDOOOO>j>OOOOh$********gOOOOOOOOOOOOo  ",
"  oOOOOOOOOOOOOOas*********f@OOOOOOO3f*********saOOOOOOOOOOOOo  ",
"  oOOOOOOOOOOOOOO2**********$F2ipi2uy**********2OOOOOOOOOOOOOo  ",
"  oOOOOOOOOOOOOOOOt***************************tOOOOOOOOOOOOOOo  ",
"  oOOOOOOOOOOOOOOr$***************************$rOOOOOOOOOOOOOo  ",
"  oOOOOOOOOOOOOO37*****************************73OOOOOOOOOOOOo  ",
"  oOOOOOOOOOOOOOz*******************************zOOOOOOOOOOOOo  ",
"  oOOOOOOOOOOOOO1****$C*******************t$****1OOOOOOOOOOOOo  ",
"  oOOOOOOOOOOOOO4C**7rOhs***************shOr7**C4OOOOOOOOOOOOo  ",
"  oOOOOOOOOOOOOOO4q2>OOOGeH***********HJGOOO>2q4OOOOOOOOOOOOOo  ",
"  oOOOOOOOOOOOOOOOOOOOOOOOO>J<*****<J>OOOOOOOOOOOOOOOOOOOOOOOo  ",
"  oOOOOOOOOOOOOOOOOOOOOOOOOOO:*****:OOOOOOOOOOOOOOOOOOOOOOOOOo  ",
"  oOOOOOOOOOOOOOOOOOOOOOOOOOO;*****;OOOOOOOOOOOOOOOOOOOOOOOOOo  ",
"  oOOOOOOOOOOOOOOOOOOOOOOOOOO%=***=%OOOOOOOOOOOOOOOOOOOOOOOOOo  ",
"  oOOOOOOOOOOOOOOOOOOOOOOOOOOO@#*M@OOOOOOOOOOOOOOOOOOOOOOOOOOo  ",
"  oOOOOOOOOOOOOOOOOOOOOOOOOOOOOOOOOOOOOOOOOOOOOOOOOOOOOOOOOOOo  ",
"  oOOOOOOOOOOOOOOOOOOOOOOOOOOOOOOOOOOOOOOOOOOOOOOOOOOOOOOOOOOo  ",
"  XOOOOOOOOOOOOOOOOOOOOOOOOOOOOOOOOOOOOOOOOOOOOOOOOOOOOOOOOOOX  ",
"  oOOOOOOOOOOOOOOOOOOOOOOOOOOOOOOOOOOOOOOOOOOOOOOOOOOOOOOOOOOo  ",
"  +OOOOOOOOOOOOOOOOOOOOOOOOOOOOOOOOOOOOOOOOOOOOOOOOOOOOOOOOOO+  ",
"   .OOOOOOOOOOOOOOOOOOOOOOOOOOOOOOOOOOOOOOOOOOOOOOOOOOOOOOOOX   ",
"    XOOOOOOOOOOOOOOOOOOOOOOOOOOOOOOOOOOOOOOOOOOOOOOOOOOOOOOX    ",
"     +.XooooooooooooooooooooooooooooooooooooooooooooooooXo+     ",
"                                                                ",
"                                                                "
};
