/* XPM */
static const char *shutdown64_xpm[] = {
/* columns rows colors chars-per-pixel */
"64 64 664 2",
"-o c #DF0F0F",
"{X c #F7CDCD",
"%o c #C6140E",
"<@ c #FDF8F8",
"). c #A10505",
"N  c #C00101",
"uX c #F7BBBB",
"MX c #E51010",
"k  c #CC0906",
"G@ c #D8291E",
"5O c #CC0302",
"P. c #D21610",
"N@ c #DE3023",
"g. c #EADADA",
";# c #E43727",
"!  c #F10000",
"_. c #A05050",
"iX c #CBA2A2",
"KO c #BF100B",
"LO c #BF100C",
"z@ c #F6CAC7",
";+ c #C51710",
" X c #FCFBFB",
"G  c #DE0000",
"<O c #C50503",
"hX c #E40101",
"VO c #AC0A08",
"g+ c #DD8785",
"qo c #CB0000",
"zo c #D72626",
"d+ c #992220",
"N. c #B80604",
"/@ c #E93B2B",
"[o c #B80000",
"D+ c #FBF8F8",
"B  c #BE0100",
"gX c #FBE6E6",
"4+ c #CA3F3C",
"UX c #CA1B13",
"~o c #CA1B14",
"[@ c #D02218",
".o c #CA0F0B",
"RO c #D02219",
"3O c #CA0302",
"|  c #EF0000",
"vO c #B10201",
"|@ c #B10202",
"yo c #E28585",
"p. c #9E5050",
"4@ c #B70906",
"s+ c #BD1610",
"V+ c #EEC3C2",
"m. c #F4E8E8",
"7  c #E21912",
"^. c #BD0A08",
"F  c #DC0000",
"IX c #C3110C",
",O c #C30503",
"Y+ c #E1CACA",
"w+ c #D5261C",
"h@ c #DB2D20",
"3@ c #DB2D21",
"x. c #E19A9A",
"$o c #B00505",
"*. c #E13426",
"9O c #B60604",
"o# c #BC0D08",
"tO c #BC0D09",
"XO c #BC0D0A",
"7@ c #F3C7C4",
"/O c #C2140E",
"Ko c #C84B4B",
"]X c #E11010",
"h. c #FFFFFF",
"M  c #C20201",
"Xo c #D47D7D",
"'o c #D45F5F",
"h  c #CE0A07",
"iO c #BB7C7C",
"t. c #AF0E0E",
"E  c #ED0000",
"S@ c #E03124",
"w. c #B50302",
"X  c #E63829",
"t  c #DA120D",
"># c #E6382A",
"_X c #F2E8E8",
"H+ c #9C0E0A",
"M+ c #9C0E0B",
"z+ c #F2D0CF",
"So c #E03737",
"%  c #E6261C",
"+. c #DA0000",
"9o c #D3B0B0",
"@# c #C71810",
">+ c #C71811",
"lX c #FEFCFC",
"go c #C71812",
"=@ c #CD2B24",
"b+ c #CD1F16",
"No c #C70000",
" # c #B40603",
"0O c #B40604",
"V  c #B40000",
"Ao c #F1E5E5",
"-  c #E52319",
"aX c #C00E0A",
"6+ c #A10C09",
"EX c #E53535",
",o c #C6150F",
"HO c #AD6262",
"mX c #EB5454",
"'+ c #D8BABA",
"/. c #D22319",
"eX c #B35D5D",
"YX c #CC100C",
"R@ c #D2231A",
"y. c #B98282",
"J. c #D21710",
"{+ c #D82A1E",
"l. c #D82A1F",
" . c #EB0000",
"=X c #DE7F7F",
"C. c #F10D0D",
"U+ c #9A3E3D",
",@ c #EA9F9B",
"sO c #B90A07",
",. c #D80000",
"7o c #EA8D8D",
"Vo c #BF110C",
">  c #E42017",
"b@ c #F6CBC8",
"|X c #C5120D",
"9X c #A00303",
"JX c #E42C2C",
"`X c #FCF0F0",
"o+ c #A6100D",
"oX c #C50000",
"r. c #D71B13",
"8. c #DD2E21",
"CO c #E9D8D8",
"D. c #F01010",
"Z@ c #DD2E22",
"5. c #DD2E23",
"J+ c #B81912",
"0. c #B20000",
"QO c #E9B4B3",
"Z  c #E33527",
"TO c #BE3231",
"2  c #E31D15",
"ho c #C4150F",
"'  c #FC0000",
"i+ c #CA1C14",
"+X c #D02319",
"Y  c #E90000",
"XX c #922B2B",
"F+ c #BD8989",
"g  c #D00B08",
"W+ c #B10301",
"lo c #E8B7B7",
"nO c #EEE2E2",
"O  c #E2261C",
"$. c #D60000",
"&@ c #F4D1CF",
"6  c #E21A13",
"mO c #9E0908",
"]o c #C30000",
"d@ c #CF2017",
"cO c #CF2018",
"'. c #8B1B1B",
"x  c #C90705",
"<X c #CF140E",
"r@ c #D5271C",
"h+ c #D5271D",
"f. c #CF1414",
"y@ c #E15F56",
"!o c #B00000",
"%+ c #B60704",
"A  c #E12F23",
"kO c #B60705",
"O# c #BC0E09",
"MO c #BC0E0A",
"0+ c #9D1816",
"9  c #E11711",
"_  c #FA0000",
"Bo c #C2150F",
"7O c #C80402",
" @ c #D44841",
".. c #E70000",
"g@ c #DA2B1F",
"C@ c #DA2B20",
"V. c #D41812",
"D@ c #E03224",
"F@ c #E03225",
"%. c #D40000",
"xo c #E03232",
"$  c #E6271D",
"ro c #C1120D",
"oO c #F8F0F0",
"=o c #EC8888",
"]+ c #F8E4E3",
"7+ c #C71912",
"eO c #FEFDFD",
"CX c #C10000",
"E. c #EC1010",
"{. c #DFA7A7",
":X c #AE0000",
"bX c #B41F1F",
"#O c #EBD3D3",
".  c #E53627",
"T@ c #E53628",
"B+ c #F1E6E6",
";X c #A15555",
"G. c #BA0805",
"zO c #C67070",
"p@ c #F1B6B2",
")  c #F80000",
"=  c #E5241A",
"m+ c #C61C14",
"oo c #FDFAFA",
"BX c #FDF4F4",
"1o c #C6100C",
"cX c #CC1D15",
"P  c #E50000",
"@+ c #D2241A",
"AX c #CC110C",
"Y. c #D2241B",
" O c #E4A5A5",
"WO c #B30402",
"k+ c #B30403",
"3. c #D20000",
"S  c #D80D09",
"dO c #B90B07",
"UO c #B90B08",
"@  c #E4271C",
"bo c #D80101",
"w  c #DE140F",
":  c #E42118",
"C+ c #BF120E",
"T+ c #F6DEDE",
">X c #BF0C09",
"{O c #A00A07",
"c+ c #A6110C",
"[+ c #CB322D",
"!+ c #D14540",
">@ c #D1271E",
"l  c #CB0805",
"DX c #E3CCCC",
"t@ c #D7281D",
"s@ c #DD2F22",
">. c #DD291D",
"4. c #B20100",
"i  c #D7100B",
"Zo c #EFDADA",
"*+ c #EFC8C7",
"l@ c #EF9E97",
"{  c #F60000",
"_@ c #BE0F0A",
"/o c #BE0F0B",
"1  c #E31E16",
".+ c #C41610",
".@ c #FBEEED",
"^+ c #AB6969",
"io c #F5BDBD",
"v+ c #CA1D15",
"n  c #C40402",
"L  c #E30000",
"8X c #BD8A8A",
"z. c #D61912",
")o c #D00000",
"K@ c #E23325",
"*o c #EEDDDD",
"^@ c #E83A2A",
"b. c #B70504",
",# c #E83A2B",
"5  c #E21B13",
"4  c #E21B14",
"u+ c #C31912",
":O c #BD0604",
"l+ c #C31914",
"5o c #DC0202",
"so c #FAF7F7",
"vo c #F4C0C0",
"v@ c #FAE5E3",
"Po c #C91A13",
"u. c #DBBFBF",
"o@ c #CF3933",
"L+ c #CF2118",
"*# c #CF2119",
"5X c #E81010",
"@X c #CF150F",
"6@ c #DB4D45",
"DO c #B00100",
"Q+ c #B00101",
"$+ c #B60805",
".# c #B60806",
"^  c #F40000",
"+O c #B60201",
"i. c #CEA8A8",
"tX c #DB1111",
"8  c #E11811",
"TX c #C86B6B",
"ZX c #C2100B",
"J  c #E10000",
"^X c #A90303",
"2+ c #D4251B",
"-@ c #DA2C20",
"<. c #CE0000",
"1@ c #E68E89",
"j+ c #B50503",
"m@ c #E67068",
"GO c #BB1E1D",
"yO c #BB0C08",
".O c #C15555",
"ao c #E04B4B",
"hO c #BB0C09",
"#  c #E6281D",
"}O c #C1130D",
"Lo c #BB0000",
"   c None",
"7X c #FEFEFE",
"jX c #E61010",
"O+ c #DFC6C6",
"%@ c #D33A33",
"y+ c #8F0B09",
"1. c #DF3023",
"}  c #F20000",
"7. c #B40201",
"no c #D30404",
"y  c #D9110C",
"W@ c #E53728",
":# c #E53729",
"!O c #F1E7E7",
"*@ c #F1C3C1",
"*  c #E5251B",
"<o c #C61711",
"fX c #FDFBFB",
"H  c #DF0000",
"B@ c #CC1E15",
"n+ c #CC1E16",
")+ c #881311",
"v  c #C60504",
"_+ c #8E2C2C",
"9@ c #D8443C",
"]. c #CC0000",
"d  c #D20D09",
"Z+ c #B30503",
";O c #B90604",
"PX c #A03535",
"(o c #B90000",
";  c #E42219",
"0X c #BF0D09",
",+ c #A0110E",
"QX c #DE0F0F",
"!X c #F6C1C1",
"A+ c #CB332E",
"G+ c #871C1C",
"GX c #E41010",
"=+ c #B27474",
"e@ c #D12219",
"`o c #DDBABA",
"/+ c #8D2F2F",
"f@ c #D7291D",
"|o c #E3CDCD",
"T. c #D11610",
"E+ c #D7291E",
"4O c #CB0302",
"Q  c #F00000",
"{@ c #B20201",
"#+ c #B80905",
"=. c #D70B08",
"aO c #B80906",
"BO c #B80907",
"Uo c #BE100B",
"+# c #BE100C",
":o c #E34F4F",
"<  c #E31F17",
"eo c #C41711",
"~+ c #FBEFEE",
"O. c #DD0000",
"/X c #C4110D",
"0o c #CA0000",
"d. c #D61A13",
"L@ c #E23426",
"JO c #B70C09",
"$O c #BD4343",
"q. c #B70000",
"3  c #E21C15",
"|O c #C3140E",
";@ c #C3140F",
"x@ c #FAE0DE",
"a+ c #C91B13",
"KX c #FADADA",
"## c #C91B14",
"WX c #E21010",
"2O c #C90302",
"W  c #EE0000",
"}@ c #B00201",
"|. c #C89C9C",
"U. c #BC0A07",
"D  c #DB0000",
"%X c #F9F5F5",
"1X c #A94646",
"++ c #CE5B59",
"w@ c #CE1F16",
"qX c #CE1F17",
"!. c #8A2020",
"c  c #C80604",
"H. c #D4261B",
"'@ c #D4261C",
"@O c #C80000",
"wX c #CE130E",
"uO c #E09A9A",
"a  c #D40E0A",
"3X c #ECDEDE",
"-O c #B50604",
"Co c #B50000",
"&O c #BB0D09",
"0  c #E01610",
"2X c #F8F2F2",
"8o c #F2B5B5",
"+o c #E01010",
"=O c #A83130",
"2@ c #CD221A",
"j  c #CD0A07",
"P@ c #D92A1F",
"R  c #EC0000",
"A@ c #DF3123",
"2. c #D91E15",
"H@ c #DF3124",
"~O c #951311",
"_o c #D30505",
"o  c #E53225",
"Ho c #D90C0C",
"&  c #E5261B",
"u@ c #F1B2AE",
"@. c #D90000",
"N+ c #A75E5D",
"PO c #C0110C",
"jo c #C0110D",
":+ c #C61811",
"LX c #FDFCFC",
">O c #C00504",
"(+ c #881A19",
"dX c #B34242",
"zX c #BF8C8C",
"r+ c #E49B99",
"9. c #D81B14",
"Yo c #D20202",
"U@ c #E43527",
"<# c #EA3C2B",
"A. c #B90705",
"Do c #F6C8C8",
"]  c #FD0000",
"To c #FCF9F9",
"Fo c #FCEDED",
"-+ c #A60D09",
"FX c #EA4E4E",
"{o c #CB1C14",
"p+ c #CB1C15",
"VX c #B27575",
"pX c #A60101",
"`O c #D12319",
"(X c #CB100C",
"wO c #AC1413",
"~X c #E3CECE",
"}. c #CB0404",
"T  c #EA0000",
"rO c #B20F0F",
"FO c #B20302",
"&+ c #B80A07",
"*O c #EFD0D0",
"Eo c #D70606",
"#. c #D70000",
"e  c #DD130E",
"+  c #E3261C",
",  c #E32017",
"OX c #BE0B08",
"'X c #E32C2C",
"&. c #C40000",
"z  c #CA0705",
"E@ c #D6271C",
"!@ c #D6271D",
"0@ c #DC2E21",
"K. c #EF1010",
";o c #E2A7A7",
"Q. c #921010",
"p  c #D60F0B",
")O c #F4ECEC",
"}o c #BD0E0A",
"@o c #DC1616",
"`  c #FB0000",
" + c #C3150F",
"m  c #C30302",
"6O c #C90402",
"U  c #E80000",
"M@ c #DB372B",
"YO c #BC6B6B",
"J@ c #E13225",
"a. c #B60402",
"k. c #B60403",
"Q@ c #E73929",
"_O c #EDCACA",
"r  c #DB130D",
"~@ c #E7392A",
"-. c #D50000",
"Mo c #BC2323",
"uo c #E77B7B",
"&X c #A34646",
"4o c #DB0D0D",
"`. c #A96565",
"&o c #C81911",
"8+ c #C81912",
" o c #C81913",
")X c #C20C0C",
"W. c #C20000",
":@ c #CE2017",
"&# c #CE2018",
"}X c #B57373",
"F. c #E0A7A7",
"I. c #ED1010",
"f+ c #E6D2D2",
"C  c #AF0000",
"lO c #B50704",
"xO c #ECD3D3",
"e+ c #B50705",
"P+ c #C11B13",
"1# c #EC3D2D",
"[  c #F90000",
"v. c #C13333",
"-X c #F8F3F3",
"xX c #C10F0A",
"Jo c #F2BCBC",
"3o c #F8E7E7",
"co c #FEFAFA",
"]O c #CD5351",
"1O c #C70403",
"I  c #E60000",
"5@ c #D3241A",
"j. c #BA8383",
"S. c #D31811",
"O@ c #D92B1F",
"Qo c #D96767",
")@ c #B40403",
";. c #D30000",
"EO c #BA0B07",
"fO c #BA0B08",
"SO c #BA0B09",
"@@ c #C0120C",
"IO c #C0120D",
"I+ c #A1100C",
"X@ c #F7DEDD",
"Oo c #E54545",
"c. c #FDFDFD",
"i@ c #FDF7F7",
"5+ c #AD6C6C",
":. c #C00000",
"K+ c #CC2017",
"[. c #EB1010",
"HX c #DEA7A7",
"a@ c #DE534B",
"j@ c #DE3B2F",
"6. c #D81C14",
"=# c #DE2F23",
"-# c #E43626",
"Y@ c #E43627",
"u  c #D8100C",
"(  c #F70000",
"n@ c #F0AAA5",
"rX c #FCFAFA",
"X+ c #C51610",
"6o c #FCF4F4",
"#X c #A63232",
"RX c #FCE8E8",
"NX c #EA5555",
"$# c #CB1D14",
"$@ c #CB1D15",
"kX c #EA4949",
"b  c #C50403",
"X. c #E40000",
"f  c #D10C08",
"3+ c #B20402",
"R. c #D10000",
"$X c #EFE3E3",
"po c #E35151",
"<+ c #D0ABAB",
"[X c #DD0E0E",
"c@ c #FBEBE9",
"ko c #BE0000",
"2o c #CA3232",
",X c #D02117",
"AO c #D02118",
"*X c #E91010",
"B. c #D6281D",
".X c #E2CCCC",
"(. c #D0150F",
"}+ c #B10101",
"'O c #B70805",
"jO c #B70806",
"X# c #B70807",
"/  c #F50000",
"OO c #F4EDED",
"NO c #BD0F0A",
"Go c #EE9898",
"S+ c #FAEEED",
"(O c #A4201F",
"#o c #FAE2E2",
"K  c #E20000",
"bO c #CF6666",
"x+ c #8B2524",
"M. c #D57F7F",
"SX c #C90505",
"ZO c #DB9292",
"s. c #DB2C1F",
"n. c #D51912",
"`@ c #DB2C20",
"e. c #DB2C21",
"4X c #CF0000",
"I@ c #E13325",
"k@ c #E77068",
"1+ c #EDC5C4",
"(@ c #E73A2B",
"nX c #F3EAEA",
"6X c #F3CCCC",
"Io c #C2130D",
"to c #BC0000",
"^O c #C2130E",
"mo c #F9EBEB",
"#@ c #C81A12",
"9+ c #C81A13",
"yX c #E71010",
">o c #B55050",
"Ro c #E6C7C7",
"|+ c #AF0100",
"+@ c #AF0101",
"pO c #B50806",
"~  c #F30000",
"~. c #960000",
"L. c #BB0906",
"8@ c #F2C3C1",
"Wo c #EC9898",
"do c #BB0303",
"`+ c #A86363",
"q+ c #C73B38",
"R+ c #C72924",
"wo c #C71710",
"o. c #E00000",
"%# c #CD1E15",
"%O c #CD1E16",
"]@ c #D3251A",
"vX c #CD120D",
"V@ c #D3251B",
"sX c #CD120E",
"t+ c #BA8484",
"Z. c #DFA5A5",
"fo c #CD0000",
"s  c #D30D0A",
"qO c #B40503",
"q@ c #B40504",
"gO c #BA0C08",
"[O c #CCA5A5",
"8O c #BA0604",
"q  c #DF150F",
"^o c #C0130D",
/* pixels */
"                                                                                                                                ",
"                                                                                                                                ",
"    . X o O + @ # $ % & * = - ; : > , < 1 2 3 4 5 6 7 8 8 9 0 q w e r t y u i p a s d f g h j k l z x c v b n m M N B V C       ",
"  Z A S D F G H J K L P I U Y T R E W Q ! ~ ^ / ( ) _ ` ' ] ] ' _ [ ( { / ~ } ! | W R  .T U ..P X.L J o.G O.F +.@.#.$.%.&.C     ",
"  *.=.+.D F G H o.K L P I ..Y T R E W Q ! } ^ / ( ) [ _ ` ' ' ` _ ) ( { ^ ~ } Q | W R  .Y U ..P X.L J o.G O.F +.@.#.$.-.;.:.C   ",
"  >.,.@.D F G H o.K L X.I ..Y T  .E W | ! } ~ / { ( ) [ _ ` ` _ [ ) ( / ^ ~ ! Q | E R  .Y U ..P X.K J o.G O.D +.@.#.$.-.;.<.C   ",
"1.2.,.@.D F O.H o.K L X.I ..U T  .R W | Q } ~ ^ / ( ) ) [ _ [ [ ) ( { / ^ } ! Q W E R T Y U I P X.K J H G O.D +.@.#.$.%.;.3.4.  ",
"5.6.,.@.+.F O.H o.J L X.P ..U Y  .R E | Q ! } ^ / { ( ( ) ) ) ) ( { / ^ ~ } Q | W E  .T Y ..I P L K J H G F D +.,.#.$.%.;.3.7.  ",
"8.9.#.@.+.F O.G o.J K X.P I U Y T R E W | Q } ~ ^ / { { ( ( #.0.q.O.^ ~ } ! Q | E R  .T U ..I X.L K o.H G F D @.,.#.-.%.;.3.w.  ",
"e.r.#.@.+.D O.G H J K L P I ..U T  .R E | Q ! } ~ ^ ^ / / t.y.u.i.p.q.} ! Q | W E R T Y U I P X.L J o.H O.F D @.,.$.-.%.3.3.a.  ",
"s.d.#.,.+.D F G H o.K L X.P ..U Y T R E W | Q ! } ~ ~ ^ f.g.h.h.h.h.j.%.Q | W E R  .T Y ..I P L K J H G O.F +.@.#.$.-.;.3.3.k.  ",
"l.z.#.,.@.D F O.G o.J K X.P I ..Y T  .R E W | Q ! ! } ~ x.h.h.h.h.h.c.v.| | W R  .T Y U ..P X.L K o.H G F D +.@.#.$.%.;.3.3.b.  ",
"l.n.$.#.@.+.D O.G H J K L X.P ..U Y T  .R E W | Q Q ! ! m.h.h.h.h.h.h.M.W W E R  .Y U ..I P X.K J o.H O.F D @.,.#.-.%.;.3.3.N.  ",
"B.V.$.#.,.+.D F O.H o.J K X.P I ..U Y T  .R E W | | Q C.h.h.h.h.h.h.h.Z.E E R  .T Y U I P X.L K J H G O.D +.@.,.$.-.%.3.3.3.A.  ",
"B.S.-.#.,.@.+.F O.G H J K L X.P I ..U Y T  .R E E W W D.h.h.h.h.h.h.h.F.R R  .T Y U ..I P L K J o.H O.F D +.,.#.$.-.;.3.3.3.G.  ",
"H.J.-.$.#.@.+.D F O.H o.J K L X.P I ..U Y T  .R R E E K.h.h.h.h.h.h.h.F. .T T Y U ..I P X.L K o.H G O.F +.@.,.#.-.%.;.3.3.3.L.  ",
"H.P.%.-.#.,.@.+.F O.G H o.J K L P I I ..U Y T T  .R R I.h.h.h.h.h.h.h.F.T Y Y U ..I P X.L K J o.G O.F D +.@.#.$.-.%.3.3.3.3.U.  ",
"Y.T.%.-.$.#.@.+.D F O.G H J K L X.P P I ..H R...T T  .E.h.h.h.h.h.h.h.F.Y U U W.Q.!.~.$.K J o.H G O.D +.@.,.#.-.%.;.3.3.3.3.^.  ",
"/.(.;.%.-.#.,.@.+.D F G H o.J K L X.X.J )._.`.'.].Y Y [.h.h.h.h.h.h.h.{.U ..}.|. Xh..XXXoXo.H G O.F D +.,.#.$.-.%.3.3.3.3.3.OX  ",
"+X@X3.%.-.$.#.,.@.D F O.G H o.J K L D #X$Xh.h.%X&XP U *Xh.h.h.h.h.h.h.{...I =Xh.h.h.h.-X;X:XG O.F D +.@.,.#.-.%.;.3.3.3.3.3.>X  ",
",X<X3.;.%.-.$.,.@.+.D F O.G H o.J %.1X2Xh.h.h.h.3X4X..5Xh.h.h.h.h.h.h.{.P P 6Xh.h.h.h.h.7X8X9XF D +.@.,.#.$.-.;.3.3.3.3.3.3.0X  ",
"qXwX3.3.;.-.$.#.,.@.+.D F O.G H ,.eXrXh.h.h.h.h.h.tXI yXh.h.h.h.h.h.h.{.X.X.uXh.h.h.h.h.h.h.iXpX+.@.,.#.$.-.%.;.3.3.3.3.3.3.aX  ",
"qXsX3.3.;.%.-.$.#.,.@.+.D F O.O.dXfXh.h.h.h.h.h.gXhXX.jXh.h.h.h.h.h.h.{.L K kXlXh.h.h.h.h.h.h.zX:X@.#.$.-.%.;.3.3.3.3.3.3.3.xX  ",
"cXvX3.3.3.;.%.-.$.#.,.@.+.D F bXnXh.h.h.h.h.h.lXmXL L MXh.h.h.h.h.h.h.{.K J J NXBXh.h.h.h.h.h.h.VXCX#.$.-.;.3.3.3.3.3.3.3.3.ZX  ",
"cXAX3.3.3.3.;.%.-.$.#.,.@.+.SXDXh.h.h.h.h.h.BXFXJ J K GXh.h.h.h.h.h.h.HXJ o.H H JXKXh.h.h.h.h.h.LXPX%.-.%.;.3.3.3.3.3.3.3.3.IX  ",
"UXYX3.3.3.3.3.;.%.-.$.#.,.@.TXh.h.h.h.h.h.RXEXH o.o.o.WXh.h.h.h.h.h.h.HXH H G G O.QX!Xh.h.h.h.h.h.~X^X%.;.3.3.3.3.3.3.3.3.3./X  ",
"UX(X3.3.3.3.3.3.;.%.-.$.#.)X_Xh.h.h.h.h.`X'XG G H H H ]Xh.h.h.h.h.h.h.HXG G O.O.F D [X{Xh.h.h.h.h.h.}X<.3.3.3.3.3.3.3.3.3.3.|X  ",
" o.o3.3.3.3.3.3.3.;.%.-.$.Xoh.h.h.h.h.ooOoF O.O.O.G G +oh.h.h.h.h.h.h.HXO.F F D D +.+.@o#oh.h.h.h.h.nX$o3.3.3.3.3.3.3.3.3.3.%o  ",
"&o.o3.3.3.3.3.3.3.3.;.%.R.*oh.h.h.h.h.=o+.D D F F F O.-oh.h.h.h.h.h.h.;oF D D +.+.@.,.,.:oh.h.h.h.h.h.>o3.3.3.3.3.3.3.3.3.3.,o  ",
"<o1oR.3.3.3.3.3.3.3.3.;.2oh.h.h.h.h.3o4o@.+.+.+.D D D 5o6oh.h.h.h.h.h.7o+.+.@.@.,.,.#.#.$.8oh.h.h.h.h.9o0o3.3.3.3.3.3.3.3.qowo  ",
"eorotoR.3.3.3.3.3.3.3.3.yoh.h.h.h.h.uo#.,.,.@.@.+.+.+.+.ioh.h.h.h.h.h.po@.@.,.,.#.#.$.-.-.aoh.h.h.h.h.sodo3.3.3.3.3.3.3.fo0.go  ",
"hojoC koR.3.3.3.3.3.3.3.loh.h.h.h.h.zo$.#.#.,.,.,.@.@.@.xocoh.h.h.h.vobo,.#.#.#.$.-.-.%.%.nomoh.h.h.h.h.Mo3.3.3.3.3.3.No0.C  o  ",
"BoVoC C Coqo3.3.3.3.3.3.Zoh.h.h.h.Ao-.-.$.$.$.#.#.#.#.,.,.SoDocoFoGoHo#.#.$.$.-.-.%.%.;.3.3.Joh.h.h.h.h.Ko3.3.3.3.<.LoC C C Po  ",
"IoUoC C C C to].3.3.3.YoToh.h.h.h.Ro;.%.%.-.-.-.$.$.$.$.$.$.$.Eo$.$.$.$.-.-.-.%.%.;.;.3.3.3.Woh.h.h.h.h.Qo3.3.].to!oC C C C ~o  ",
"^o/oC C C C C C (oNo)o_oh.h.h.h.h.`o3.;.;.;.%.%.%.-.-.-.-.-.-.-.-.-.-.%.%.%.;.;.3.3.3.3.3.3.Woh.h.h.h.h.'o]o[oC C C C C C C {o  ",
"jo}oC C C C C C C C !o(orXh.h.h.h.|o<.3.3.3.;.;.;.;.%.%.%.%.%.%.%.;.;.;.;.3.3.3.3.3.3.3.3.3. Oh.h.h.h.h..OC C C C C C C C C cX  ",
"/oXOC C C C C C C C C C oOh.h.h.h.OO+O)o3.3.3.3.3.3.3.3.3.;.;.3.3.3.3.3.3.3.3.3.3.3.R.fo@O&.#Oh.h.h.h.h.$OC C C C C C C C C %O  ",
"/o&OC C C C C C C C C C *Oh.h.h.h.h.=O-O;O:O>O,O<O1O2O3O3O4O4O5O4O3O6O7O1O<O,O>O:O8O9O0OqOwOc.h.h.h.h.eOrOC C C C C C C C C qX  ",
"tOyOC C C C C C C C C C uOh.h.h.h.h.iOpOaOsOdOfOgOhOhOtOtOtOXOXOtOtOtOhOhOgOfOdOsOaOjOkOlOzOh.h.h.h.h.xOC C C C C C C C C C cO  ",
"tOfOC C C C C C C C C vObOh.h.h.h.h.nOmOfOyO&OtOMO}oNO/o/o/o/o/o/o/o/oNO}oMOtO&OyOfOsOBOVOCOh.h.h.h.h.ZOC C C C C C C C C C AO  ",
"SOsOC C C C C C C DOvOFOGOfXh.h.h.h.h.HOJO}oNO/oKOLOVoPOPOjoIOIOjoPOPOVoLOKO/oNO}otOhOUOYOh.h.h.h.h.h.TODOC C C C C C C C C RO  ",
"EOBOC C C C C C DOvOWOqO-OQOh.h.h.h.h.!O~OKOVoPOroro^O^O^O/O/O/O/O^O^O^OroroPOVoKO/o}o(O)Oh.h.h.h.h._OWOvODOC C C C C C C C `O  ",
"BOjOC C C C C DOvOWOqOlO'O]Oh.h.h.h.h.h.[O{O}O^O|O +hoho.+.+X+X+.+.+hoho +|O^O}OroPOo+O+h.h.h.h.h.h.++qOWOvODOC C C C C C C @+  ",
"#+$+C C C C DOvOWOqO%+jO&+SO*+h.h.h.h.h.h.=+-+hoX+;+<o<o:+>+>+>+>+:+<o<o;+X+ho +|O,+<+h.h.h.h.h.h.1+jO%+qOWOvODOC C C C C C 2+  ",
"kO%+C C C C vO3+qO%+jO&+fOhO4+eOh.h.h.h.h.7X5+6+:+7+8+9+9+PoPoPoPo9+9+8+7+>+<o.+0+u.h.h.h.h.h.h.lXq+&+jO%+qO3+vOC C C C C C w+  ",
"e+-OC C C vOFOqO-O'O&+fO&O}o/or+h.h.h.h.h.h.7Xt+y+u+~oi+{op+p+p+p+{oi+~oa+Pos+d+f+h.h.h.h.h.h.h.g+&OfO&+'O-OqOFOvOC C C C C h+  ",
"j+qOC C DOFOk+-O'OaOfOhO}oUoPOl+z+h.h.h.h.h.h.h.u.x+c+v+%O%Ob+b+%O%On+cXm+M+N+B+h.h.h.h.h.h.h.V+C+}o&OfOaO'O-Ok+FODOC C C C B.  ",
"Z+k+C C vOWO0OkOaOdOhO}o/oPOro|OA+S+h.h.h.h.h.h.h.D+F+G+H+J+K+L+L+cOP+I+U+Y+h.h.h.h.h.h.h.h.T+R+PO/o}ohOdOaOkO0OWOvOC C C C E+  ",
"W+FOC Q+FOqOkOjOsOyOtO/oVoro|Oho;+!+~+h.h.h.h.h.h.h.h. X9o^+/+(+)+_+`+'+7Xh.h.h.h.h.h.h.h.]+[+|OroVo/oMOyOsOjOkOqOFOQ+C C C {+  ",
"}+W+|+vOk+-O'O&+fOtONOLOro/Oho;+>+9+ @.@h.h.h.h.h.h.h.h.h.h.h.h.h.h.h.h.h.h.h.h.h.h.h.h.X@o@;+ho/OroLONOtOfO&+'O-Ok+vO|+C C O@  ",
"+@vOQ+FOqOkOaOdOhO}oKO@@^Oho;+>+#@~o$@%@&@h.h.h.h.h.h.h.h.h.h.h.h.h.h.h.h.h.h.h.h.h.h.*@=@#@>+;+ho^O@@KO}ohOdOaOkOqOFOQ+C C -@  ",
"C Q+vOk+-O'O&+fOtO/oPO}O;@X+:+8+~o$@%O:@>@,@lXh.h.h.h.h.h.h.h.h.h.h.h.h.h.h.h.h.h.<@1@2@$@~o8+:+X+;@}OPO/otOfO&+'O-Ok+vOC C 3@  ",
"C C FOqOkO4@sOhO}oKOIO/Oho<o7+a+{on+:@AO`O5@6@7@h.h.h.h.h.h.h.h.h.h.h.h.h.h.h.h.8@9@AO:@n+{oa+7+<oho/OroKO}ohOsO4@kOqOFODOC 0@  ",
"C C 3+q@kOaOfOtO/oPO}O +X+>+Poi+cXw@L+e@@+H.r@t@y@u@i@h.h.h.h.h.h.h.h.h.h.cop@a@H.5@e@L+w@cXi+Po>+X+ +}OPO/otOfOaOkOq@WOvOC s@  ",
"|+C k+-OjOsOyO}oUoIO^Oho<o8+a+$@%Od@RO@+2+r@f@{+g@h@j@k@l@z@x@c@BXv@b@n@m@M@{+f@r@2+@+ROd@b+$@a+8+<oho^OIOUo}oyOsOjO-Ok+vOC N@  ",
"}+DOqOe+4@sOhO}oLOro|OX+>+9+i+B@qXAO`OV@r@t@{+C@3@Z@N@A@S@D@F@F@D@S@A@N@Z@3@C@{+t@r@V@/.AOqXB@i+9+>+X+|OroLO}ohOsO4@e+qOFODOA@  ",
"W+vOqOkOaOfOtO/oPO}O +;+7+a+p+%Od@e@@+H.B.G@O@3@Z@N@H@J@K@L@L@L@L@K@J@H@N@Z@3@O@G@B.H.@+e@d@%Op+a+7+;+ +}OPO/otOfOaOkOqOFOQ+D@  ",
"  FOq@kOBOfOXO/oPO^Oho<o8+~ocXb+L+`OV@r@t@P@-@0@N@S@I@L@U@Y@T@T@Y@U@L@I@S@N@0@-@P@t@r@V@`OL+b+cX~o8+<oho^OPO/oXOfOBOkOq@FOvOY@  ",
"  k+0O'O&+gOMOUoIO/O.+:+#@~ocXqXAOR@2+E@G@O@3@s@A@J@L@Y@W@X Q@Q@X W@Y@L@J@A@s@3@O@G@!@2+R@AOqXcXi+#@:+.+/OIOUoMOgO&+'O-Ok+}o~@  ",
"  k+k+'OsOyO}oKOro/O.+:+9+i+n+:@RO@+H.B.{+-@0@N@S@K@Z W@Q@^@/@/@^@Q@W@Z K@S@N@0@-@{+B.H.@+RO:@n+i+9+:+.+|OroKO}ohOsOjO-OaOA@(@  ",
"    )@k+0OkOkOjOsOEOtO_@KO@@^O +;+go9+i+$@b+cORO@+2+r@t@l.-@h@3@3@3@3@`@-@O@O@l.{+{+f@B.B.!@r@'@'@2+2+]@5@R@R@`Oe@[@AOE+^@/@    ",
"      Z+{@}@Q+C C DO}@|@FO #%+.#X#&+yOo#O#}o+#ro^O/O +.+@#7+9+##$#%#b+&#*#R@5@]@H.h+G@P@O@-@3@=#A@H@F@I@-#;#:#>#,#<#<#1#        ",
"                                                                                                                                ",
"                                                                                                                                "
};
