/* XPM */
static const char *delete_xpm[] = {
/* columns rows colors chars-per-pixel */
"96 96 4 1",
"  c None",
"o c #313131",
". c #323232",
"X c #333333",
/* pixels */
"    .XXXXXXXX.XX.XX.XX.XX.XX.XX.XX.XX.XX.XX.XX.XX.XX.XX.XX.XX.XX.XX.XX.XX.XX.XX.XX.XX.XX.XX.    ",
"  Xo.XXXXXXXXXXXXXXXXXXXX.XX.XX.XX.XX.XX.XX.XX.XX.XX.XX.XX.XX.XX.XX.XX.XX.XX.XX.XX.XX.XX.XX.oX  ",
"  XXXXXXXXXXXXXXXXXXXXXXXXXXXXXXXXXXXXXXXXXXXXXXXXXXXXXXXXXXXXXXXXXXXXXXXXXXXXXXXXXXXXXXXXXXXX  ",
" X.X.XXX.XX.X.XX.XX.XX.XXXXXXXXXXXXXXXXXXXXXXXXXXXXXXXXXXXXXXXXXXXXXXXXXXXXXXXXXXXXXXXXXXXXXXXX ",
" X.X.XXXXXXXX.XX.XX.XX.XX.XX.XX.XX.XX.XX.XX.XX.XX.XX.XX.XX.XX.XX.XX.XX.XX.XX.XX.XX.XX.XX.XX.XX. ",
"XXXXXXXXXXXXXXXXXXXXXXXXXXXXXXXXXXXXXXXXXXXXXXXXX.XX.XX.XX.XX.XX.XX.XX.XX.XX.XX.XX.XX.XX.XX.XX.X",
".X.X.X.X..X..............X..X..X..X..X..X..X..X.................................................",
"oX.X.X.X..X..............X..X..X..X..X..X..X..X................................................o",
".X.X.XXX                                                                                oXX.XX.X",
"XXXXXXX                                                                                  XX.XX.X",
".X.X.X.                                                                                  .......",
"XX.X.XX                                                                                  XX.XX.X",
"XXXXXXX                                                                                  XX.XX.X",
".X.X.X.                                                                                  .......",
".X.X.X.                                                                                  .......",
"XX.X.XX                                                                                  XX.XX.X",
"XXXXXXX                                                                                  XX.XX.X",
".X.X.X.                                                                                  .......",
"XX.X.XX                                                                                  XX.XX.X",
"XXXX.XX                                                                                  XX.XX.X",
"XXXX.XX                                                                                  .......",
"XX.X.XX                                                                                  .......",
".X.X.XX                                                                                  XX.XX.X",
"XXXX.XX                      oooo.                            ooooo                      XX.XX.X",
"XX.X.XX                    ........                          ........                    .......",
".X.X.XX                   ..........                        ..........                   XX.XX.X",
"XXXX.XX                  ...........o                      ............                  XX.XX.X",
"XXXX.XX                 ..............                    ..............                 .......",
"XX.X.XX                 ...............                  ...............                 .......",
".X.X.XX                o...............o                o...............o                XX.XX.X",
"XXXX.XX                o.................              .................o                XX.XX.X",
"XX.X.XX                o..................            ..................o                .......",
".X.X.XX                o..................o          o..................o                XX.XX.X",
"XXXX.XX                o....................        ....................o                XX.XX.X",
"XXXX.XX                 o....................      .....................                 XX.XX.X",
"XX.X.XX                  o....................    o....................                  .......",
".X.X.XX                   .....................  .....................                   XX.XX.X",
"XXXX.XX                    o.........................................                    XX.XX.X",
"XX.X.XX                     o.......................................                     .......",
".X.X.XX                      ......................................                      XX.XX.X",
".XXX.XX                       o...................................                       XX.XX.X",
"XXXX.XX                        o.................................                        XX.XX.X",
"XX.X.XX                         ................................                         .......",
".X.X.XX                          o.............................                          .......",
".XXX.XX                           o...........................                           XX.XX.X",
"XXXX.XX                            ..........................                            .......",
".X.X.XX                             o.......................                             .......",
".X.X.XX                              o.....................                              XX.XX.X",
"XXXXXXX                              ......................                              XXXXXXX",
"X.X.X..                             ........................                             ..X..X.",
".......                            ..........................                            .......",
"XXXXXXX                           ............................                           XXXXXXX",
"XXXXXXX                          ..............................                          XXXXXXX",
".......                         o...............................                         .......",
".......                        ..................................                        .......",
"XXXXXXX                       ....................................                       XXXXXXX",
"XXXXXXX                      o.....................................                      XXXXXXX",
".......                     ........................................                     .......",
".X.X.XX                    .....................o....................                    XX.XX.X",
"XXXXXXX                   o....................  o....................                   XXXXXXX",
"X.X.X..                  ....................o    .....................                  ..X..X.",
".......                 .....................      o....................                 .......",
".X.X.XX                .....................        o....................                XX.XX.X",
"XXXXXXX                o..................o          ...................o                XXXXXXX",
"X.X.X..                o..................            o.................o                ..X..X.",
".......                o.................              o................o                .......",
".X.X.XX                ................o                ................o                XX.XX.X",
"XXXXXXX                o...............                  o..............                 XXXXXXX",
"X.X.X..                 ..............                    o.............                 ..X..X.",
".......                  ...........o                      ............                  .......",
".X.X.XX                   ..........                        o.........                   XX.XX.X",
"XXXXXXX                    ........                          o.......                    XXXXXXX",
".......                     ooooo.                            ooooo                      .......",
".X.X.XX                                                                                  XX.XX.X",
"XXXXXXX                                                                                  XXXXXXX",
"XXXXXXX                                                                                  XXXXXXX",
".......                                                                                  .......",
".X.X.XX                                                                                  XX.XX.X",
"XXXXXXX                                                                                  XXXXXXX",
".......                                                                                  .......",
".X.X.XX                                                                                  XX.XX.X",
"XXXXXXX                                                                                  XXXXXXX",
"XXXXXXX                                                                                  XXXXXXX",
".......                                                                                  .......",
".X.X.XX                                                                                  XX.XX.X",
"XXXXXXX                                                                                  XXXXXXX",
".......                                                                                  .......",
".X.X.XX                                                                                  XX.XX.X",
"oX.X.XX.                                                                                .XX.XX..",
".XXXXXXXXXXXXXXXXXXXXXXXXXXXXXXXXXXXXXXXXXXXXXXXXXXXXXXXXXXXXXXXXXXXXXXXXXXXXXXXXXXXXXXXXXXXXXX.",
"o..............................................................................................o",
"XX.X.XX.XX.XX.XX.XX.XX.XX.XX.XX.XX.XX.XX.XX.XX.XX.XX.XX.XX.XX.XX.XX.XX.XX.XX.XX.XX.XX.XX.XX.XX.X",
" XXXXXXXXXXXXXXXXXXXXXXXXXXXXXXXXXXXXXXXXXXXXXXXXXXXXXXXXXXXXXXXXXXXXXXXXXXXXXXXXXXXXXXXXXXXXXX ",
" .............................................................................................. ",
"  oX........................................................................................Xo  ",
"   X.XX.XX.XX.XX.XX.XX.XX.XX.XX.XX.XX.XX.XX.XX.XX.XX.XX.XX.XX.XX.XX.XX.XX.XX.XX.XX.XX.XX.XX.X   "
};
